<!-- groupedColors.svg -->
<!-- Generated using p5.plotSvg: -->
<!-- A Plotter-Oriented SVG Exporter for p5.js -->
<!-- Thu Jun 26 2025 16:15:10 GMT-0400 (Eastern Daylight Time) -->
<!-- DPI: 96 -->
<svg xmlns="http://www.w3.org/2000/svg" width="6.25in" height="4.166666666666667in" viewBox="0 0 600 400">
  <style>
      circle, ellipse, line, path, polygon, polyline, rect, quad, text {
        fill: none;
        stroke: black;
        stroke-width: 1;
        stroke-linecap: round;
        stroke-linejoin: round;
        vector-effect: non-scaling-stroke;
      }
    </style>
<g vector-effect="non-scaling-stroke">
  <g id="horizontalLines">
    <line x1="300" y1="200" x2="271.5501" y2="200" style="stroke:red;"/>
    
    <line x1="271.5501" y1="224.2344" x2="257.3954" y2="224.2344" style="stroke:red;"/>
    
    <line x1="257.3954" y1="250.4216" x2="222.5099" y2="250.4216" style="stroke:red;"/>
    
    <line x1="222.5099" y1="241.4286" x2="244.1157" y2="241.4286" style="stroke:red;"/>
    
    <line x1="244.1157" y1="258.0617" x2="237.8033" y2="258.0617" style="stroke:red;"/>
    
    <line x1="237.8033" y1="255.5525" x2="273.1487" y2="255.5525" style="stroke:red;"/>
    
    <line x1="273.1487" y1="270.7139" x2="287.4339" y2="270.7139" style="stroke:red;"/>
    
    <line x1="287.4339" y1="278.8193" x2="270.4194" y2="278.8193" style="stroke:red;"/>
    
    <line x1="270.4194" y1="282.8774" x2="297.5453" y2="282.8774" style="stroke:red;"/>
    
    <line x1="297.5453" y1="262.3579" x2="306.5599" y2="262.3579" style="stroke:red;"/>
    
    <line x1="306.5599" y1="241.5369" x2="301.5332" y2="241.5369" style="stroke:red;"/>
    
    <line x1="301.5332" y1="266.1909" x2="311.6202" y2="266.1909" style="stroke:red;"/>
    
    <line x1="311.6202" y1="256.8513" x2="277.9239" y2="256.8513" style="stroke:red;"/>
    
    <line x1="277.9239" y1="271.4449" x2="243.4988" y2="271.4449" style="stroke:red;"/>
    
    <line x1="243.4988" y1="282.8696" x2="217.0526" y2="282.8696" style="stroke:red;"/>
    
    <line x1="217.0526" y1="299.6012" x2="233.3750" y2="299.6012" style="stroke:red;"/>
    
    <line x1="233.3750" y1="320.2656" x2="251.0707" y2="320.2656" style="stroke:red;"/>
    
    <line x1="251.0707" y1="305.4628" x2="263.9255" y2="305.4628" style="stroke:red;"/>
    
    <line x1="263.9255" y1="289.9589" x2="254.3159" y2="289.9589" style="stroke:red;"/>
    
    <line x1="254.3159" y1="302.3960" x2="288.6042" y2="302.3960" style="stroke:red;"/>
    
    <line x1="288.6042" y1="273.3648" x2="253.5732" y2="273.3648" style="stroke:red;"/>
    
    <line x1="253.5732" y1="280.2740" x2="292.7688" y2="280.2740" style="stroke:red;"/>
    
    <line x1="292.7688" y1="271.8888" x2="320.2613" y2="271.8888" style="stroke:red;"/>
    
    <line x1="320.2613" y1="288.4272" x2="349.9334" y2="288.4272" style="stroke:red;"/>
    
    <line x1="349.9334" y1="305.1600" x2="389.0729" y2="305.1600" style="stroke:red;"/>
    
    <line x1="389.0729" y1="277.7818" x2="358.9303" y2="277.7818" style="stroke:red;"/>
    
    <line x1="358.9303" y1="304.3685" x2="340.1018" y2="304.3685" style="stroke:red;"/>
    
    <line x1="340.1018" y1="288.2388" x2="340.2600" y2="288.2388" style="stroke:red;"/>
    
    <line x1="340.2600" y1="263.9509" x2="373.9878" y2="263.9509" style="stroke:red;"/>
    
    <line x1="373.9878" y1="249.2255" x2="362.4133" y2="249.2255" style="stroke:red;"/>
    
    <line x1="362.4133" y1="231.7393" x2="402.1098" y2="231.7393" style="stroke:red;"/>
    
    <line x1="402.1098" y1="253.2224" x2="441.4442" y2="253.2224" style="stroke:red;"/>
    
    <line x1="441.4442" y1="244.5673" x2="466.3598" y2="244.5673" style="stroke:red;"/>
    
    <line x1="466.3598" y1="243.9458" x2="469.5767" y2="243.9458" style="stroke:red;"/>
    
    <line x1="469.5767" y1="273.1999" x2="495.5276" y2="273.1999" style="stroke:red;"/>
    
    <line x1="495.5276" y1="252.7414" x2="461.1258" y2="252.7414" style="stroke:red;"/>
    
    <line x1="461.1258" y1="227.3289" x2="437.8280" y2="227.3289" style="stroke:red;"/>
    
    <line x1="437.8280" y1="218.6176" x2="476.5140" y2="218.6176" style="stroke:red;"/>
    </g>
  <g id="verticalLines">
    <line x1="271.5501" y1="200" x2="271.5501" y2="224.2344" style="stroke:blue;"/>
    
    <line x1="257.3954" y1="224.2344" x2="257.3954" y2="250.4216" style="stroke:blue;"/>
    
    <line x1="222.5099" y1="250.4216" x2="222.5099" y2="241.4286" style="stroke:blue;"/>
    
    <line x1="244.1157" y1="241.4286" x2="244.1157" y2="258.0617" style="stroke:blue;"/>
    
    <line x1="237.8033" y1="258.0617" x2="237.8033" y2="255.5525" style="stroke:blue;"/>
    
    <line x1="273.1487" y1="255.5525" x2="273.1487" y2="270.7139" style="stroke:blue;"/>
    
    <line x1="287.4339" y1="270.7139" x2="287.4339" y2="278.8193" style="stroke:blue;"/>
    
    <line x1="270.4194" y1="278.8193" x2="270.4194" y2="282.8774" style="stroke:blue;"/>
    
    <line x1="297.5453" y1="282.8774" x2="297.5453" y2="262.3579" style="stroke:blue;"/>
    
    <line x1="306.5599" y1="262.3579" x2="306.5599" y2="241.5369" style="stroke:blue;"/>
    
    <line x1="301.5332" y1="241.5369" x2="301.5332" y2="266.1909" style="stroke:blue;"/>
    
    <line x1="311.6202" y1="266.1909" x2="311.6202" y2="256.8513" style="stroke:blue;"/>
    
    <line x1="277.9239" y1="256.8513" x2="277.9239" y2="271.4449" style="stroke:blue;"/>
    
    <line x1="243.4988" y1="271.4449" x2="243.4988" y2="282.8696" style="stroke:blue;"/>
    
    <line x1="217.0526" y1="282.8696" x2="217.0526" y2="299.6012" style="stroke:blue;"/>
    
    <line x1="233.3750" y1="299.6012" x2="233.3750" y2="320.2656" style="stroke:blue;"/>
    
    <line x1="251.0707" y1="320.2656" x2="251.0707" y2="305.4628" style="stroke:blue;"/>
    
    <line x1="263.9255" y1="305.4628" x2="263.9255" y2="289.9589" style="stroke:blue;"/>
    
    <line x1="254.3159" y1="289.9589" x2="254.3159" y2="302.3960" style="stroke:blue;"/>
    
    <line x1="288.6042" y1="302.3960" x2="288.6042" y2="273.3648" style="stroke:blue;"/>
    
    <line x1="253.5732" y1="273.3648" x2="253.5732" y2="280.2740" style="stroke:blue;"/>
    
    <line x1="292.7688" y1="280.2740" x2="292.7688" y2="271.8888" style="stroke:blue;"/>
    
    <line x1="320.2613" y1="271.8888" x2="320.2613" y2="288.4272" style="stroke:blue;"/>
    
    <line x1="349.9334" y1="288.4272" x2="349.9334" y2="305.1600" style="stroke:blue;"/>
    
    <line x1="389.0729" y1="305.1600" x2="389.0729" y2="277.7818" style="stroke:blue;"/>
    
    <line x1="358.9303" y1="277.7818" x2="358.9303" y2="304.3685" style="stroke:blue;"/>
    
    <line x1="340.1018" y1="304.3685" x2="340.1018" y2="288.2388" style="stroke:blue;"/>
    
    <line x1="340.2600" y1="288.2388" x2="340.2600" y2="263.9509" style="stroke:blue;"/>
    
    <line x1="373.9878" y1="263.9509" x2="373.9878" y2="249.2255" style="stroke:blue;"/>
    
    <line x1="362.4133" y1="249.2255" x2="362.4133" y2="231.7393" style="stroke:blue;"/>
    
    <line x1="402.1098" y1="231.7393" x2="402.1098" y2="253.2224" style="stroke:blue;"/>
    
    <line x1="441.4442" y1="253.2224" x2="441.4442" y2="244.5673" style="stroke:blue;"/>
    
    <line x1="466.3598" y1="244.5673" x2="466.3598" y2="243.9458" style="stroke:blue;"/>
    
    <line x1="469.5767" y1="243.9458" x2="469.5767" y2="273.1999" style="stroke:blue;"/>
    
    <line x1="495.5276" y1="273.1999" x2="495.5276" y2="252.7414" style="stroke:blue;"/>
    
    <line x1="461.1258" y1="252.7414" x2="461.1258" y2="227.3289" style="stroke:blue;"/>
    
    <line x1="437.8280" y1="227.3289" x2="437.8280" y2="218.6176" style="stroke:blue;"/>
    </g>
  </g>
</svg>