<!-- post_grouping.svg -->
<!-- Generated using p5.plotSvg v.0.1.8: -->
<!-- A Plotter-Oriented SVG Exporter for p5.js -->
<!-- Fri Jan 23 2026 12:53:24 GMT-0500 (Eastern Standard Time) -->
<!-- DPI: 96 -->
<svg xmlns="http://www.w3.org/2000/svg" xmlns:inkscape="http://www.inkscape.org/namespaces/inkscape" version="1.1" inkscape:version="1.4" width="6in" height="4in" viewBox="0 0 576 384">
  <style>
      circle, ellipse, line, path, polygon, polyline, rect, quad, text {
        fill: none;
        stroke: black;
        stroke-width: 1;
        stroke-linecap: round;
        stroke-linejoin: round;
        vector-effect: non-scaling-stroke;
      }
    </style>
<g id="horizontalLines" inkscape:groupmode="layer" inkscape:label="1_horizontalLines">
  <line x1="288" y1="192" x2="249.6322" y2="192" style="stroke:red;"/>
  
  <line x1="249.6322" y1="162.9929" x2="253.0847" y2="162.9929" style="stroke:red;"/>
  <line x1="253.0847" y1="171.0871" x2="285.8870" y2="171.0871" style="stroke:red;"/>
  <line x1="285.8870" y1="147.8348" x2="285.5582" y2="147.8348" style="stroke:red;"/>
  <line x1="285.5582" y1="150.7357" x2="293.2462" y2="150.7357" style="stroke:red;"/>
  <line x1="293.2462" y1="167.7428" x2="256.4345" y2="167.7428" style="stroke:red;"/>
  <line x1="256.4345" y1="182.3708" x2="293.6993" y2="182.3708" style="stroke:red;"/>
  <line x1="293.6993" y1="156.7909" x2="309.6679" y2="156.7909" style="stroke:red;"/>
  <line x1="309.6679" y1="154.4085" x2="301.3865" y2="154.4085" style="stroke:red;"/>
  <line x1="301.3865" y1="181.9798" x2="293.8766" y2="181.9798" style="stroke:red;"/>
  <line x1="293.8766" y1="209.1457" x2="333.3708" y2="209.1457" style="stroke:red;"/>
  <line x1="333.3708" y1="218.9677" x2="327.2025" y2="218.9677" style="stroke:red;"/>
  <line x1="327.2025" y1="218.9632" x2="310.1853" y2="218.9632" style="stroke:red;"/>
  <line x1="310.1853" y1="214.3613" x2="324.2108" y2="214.3613" style="stroke:red;"/>
  <line x1="324.2108" y1="193.6795" x2="291.3123" y2="193.6795" style="stroke:red;"/>
  <line x1="291.3123" y1="214.8407" x2="276.2373" y2="214.8407" style="stroke:red;"/>
  <line x1="276.2373" y1="185.2649" x2="273.2507" y2="185.2649" style="stroke:red;"/>
  <line x1="273.2507" y1="172.7656" x2="279.0894" y2="172.7656" style="stroke:red;"/>
  <line x1="279.0894" y1="200.5022" x2="240.3267" y2="200.5022" style="stroke:red;"/>
  <line x1="240.3267" y1="217.2875" x2="224.5065" y2="217.2875" style="stroke:red;"/>
  <line x1="224.5065" y1="206.5557" x2="260.9055" y2="206.5557" style="stroke:red;"/>
  <line x1="260.9055" y1="209.3653" x2="274.2865" y2="209.3653" style="stroke:red;"/>
  <line x1="274.2865" y1="218.7832" x2="284.1598" y2="218.7832" style="stroke:red;"/>
  <line x1="284.1598" y1="198.4582" x2="318.4849" y2="198.4582" style="stroke:red;"/>
  <line x1="318.4849" y1="214.5035" x2="315.0503" y2="214.5035" style="stroke:red;"/>
  <line x1="315.0503" y1="228.0443" x2="301.5921" y2="228.0443" style="stroke:red;"/>
  <line x1="301.5921" y1="240.8034" x2="307.6764" y2="240.8034" style="stroke:red;"/>
  <line x1="307.6764" y1="256.4888" x2="303.0954" y2="256.4888" style="stroke:red;"/>
  <line x1="303.0954" y1="238.8467" x2="299.6515" y2="238.8467" style="stroke:red;"/>
  <line x1="299.6515" y1="249.1585" x2="301.3323" y2="249.1585" style="stroke:red;"/>
  <line x1="301.3323" y1="271.5206" x2="292.6606" y2="271.5206" style="stroke:red;"/>
  <line x1="292.6606" y1="297.0592" x2="312.0407" y2="297.0592" style="stroke:red;"/>
  <line x1="312.0407" y1="275.6305" x2="326.8551" y2="275.6305" style="stroke:red;"/>
  <line x1="326.8551" y1="266.6404" x2="315.5132" y2="266.6404" style="stroke:red;"/>
  <line x1="315.5132" y1="284.2286" x2="339.2421" y2="284.2286" style="stroke:red;"/>
  <line x1="339.2421" y1="264.7946" x2="308.7605" y2="264.7946" style="stroke:red;"/>
  <line x1="308.7605" y1="259.0385" x2="338.7244" y2="259.0385" style="stroke:red;"/>
  <line x1="338.7244" y1="272.4470" x2="341.5910" y2="272.4470" style="stroke:red;"/>
</g>
<g id="verticalLines" inkscape:groupmode="layer" inkscape:label="2_verticalLines">
  <line x1="249.6322" y1="192" x2="249.6322" y2="162.9929" style="stroke:blue;"/>
  
  <line x1="253.0847" y1="162.9929" x2="253.0847" y2="171.0871" style="stroke:blue;"/>
  <line x1="285.8870" y1="171.0871" x2="285.8870" y2="147.8348" style="stroke:blue;"/>
  <line x1="285.5582" y1="147.8348" x2="285.5582" y2="150.7357" style="stroke:blue;"/>
  <line x1="293.2462" y1="150.7357" x2="293.2462" y2="167.7428" style="stroke:blue;"/>
  <line x1="256.4345" y1="167.7428" x2="256.4345" y2="182.3708" style="stroke:blue;"/>
  <line x1="293.6993" y1="182.3708" x2="293.6993" y2="156.7909" style="stroke:blue;"/>
  <line x1="309.6679" y1="156.7909" x2="309.6679" y2="154.4085" style="stroke:blue;"/>
  <line x1="301.3865" y1="154.4085" x2="301.3865" y2="181.9798" style="stroke:blue;"/>
  <line x1="293.8766" y1="181.9798" x2="293.8766" y2="209.1457" style="stroke:blue;"/>
  <line x1="333.3708" y1="209.1457" x2="333.3708" y2="218.9677" style="stroke:blue;"/>
  <line x1="327.2025" y1="218.9677" x2="327.2025" y2="218.9632" style="stroke:blue;"/>
  <line x1="310.1853" y1="218.9632" x2="310.1853" y2="214.3613" style="stroke:blue;"/>
  <line x1="324.2108" y1="214.3613" x2="324.2108" y2="193.6795" style="stroke:blue;"/>
  <line x1="291.3123" y1="193.6795" x2="291.3123" y2="214.8407" style="stroke:blue;"/>
  <line x1="276.2373" y1="214.8407" x2="276.2373" y2="185.2649" style="stroke:blue;"/>
  <line x1="273.2507" y1="185.2649" x2="273.2507" y2="172.7656" style="stroke:blue;"/>
  <line x1="279.0894" y1="172.7656" x2="279.0894" y2="200.5022" style="stroke:blue;"/>
  <line x1="240.3267" y1="200.5022" x2="240.3267" y2="217.2875" style="stroke:blue;"/>
  <line x1="224.5065" y1="217.2875" x2="224.5065" y2="206.5557" style="stroke:blue;"/>
  <line x1="260.9055" y1="206.5557" x2="260.9055" y2="209.3653" style="stroke:blue;"/>
  <line x1="274.2865" y1="209.3653" x2="274.2865" y2="218.7832" style="stroke:blue;"/>
  <line x1="284.1598" y1="218.7832" x2="284.1598" y2="198.4582" style="stroke:blue;"/>
  <line x1="318.4849" y1="198.4582" x2="318.4849" y2="214.5035" style="stroke:blue;"/>
  <line x1="315.0503" y1="214.5035" x2="315.0503" y2="228.0443" style="stroke:blue;"/>
  <line x1="301.5921" y1="228.0443" x2="301.5921" y2="240.8034" style="stroke:blue;"/>
  <line x1="307.6764" y1="240.8034" x2="307.6764" y2="256.4888" style="stroke:blue;"/>
  <line x1="303.0954" y1="256.4888" x2="303.0954" y2="238.8467" style="stroke:blue;"/>
  <line x1="299.6515" y1="238.8467" x2="299.6515" y2="249.1585" style="stroke:blue;"/>
  <line x1="301.3323" y1="249.1585" x2="301.3323" y2="271.5206" style="stroke:blue;"/>
  <line x1="292.6606" y1="271.5206" x2="292.6606" y2="297.0592" style="stroke:blue;"/>
  <line x1="312.0407" y1="297.0592" x2="312.0407" y2="275.6305" style="stroke:blue;"/>
  <line x1="326.8551" y1="275.6305" x2="326.8551" y2="266.6404" style="stroke:blue;"/>
  <line x1="315.5132" y1="266.6404" x2="315.5132" y2="284.2286" style="stroke:blue;"/>
  <line x1="339.2421" y1="284.2286" x2="339.2421" y2="264.7946" style="stroke:blue;"/>
  <line x1="308.7605" y1="264.7946" x2="308.7605" y2="259.0385" style="stroke:blue;"/>
  <line x1="338.7244" y1="259.0385" x2="338.7244" y2="272.4470" style="stroke:blue;"/>
</g>
</svg>