<!-- plotSvg_drawing.svg -->
<!-- Generated using p5.plotSvg: -->
<!-- A Plotter-Oriented SVG Exporter for p5.js -->
<!-- Sat Dec 07 2024 07:57:30 GMT-0500 (Eastern Standard Time) -->
<!-- DPI: 96 -->
<svg xmlns="http://www.w3.org/2000/svg" width="6in" height="4in" viewBox="0 0 576 384">
  <style>
      circle, ellipse, line, path, polygon, polyline, rect, quad, text {
        fill: none;
        stroke: black;
        stroke-width: 1;
        stroke-linecap: round;
        stroke-linejoin: round;
        vector-effect: non-scaling-stroke;
      }
    </style>
<g vector-effect="non-scaling-stroke">
  <polyline points="112,134 116,139 121,144 126,148 129,149 135,149 138,148 142,146 145,140 150,127 154,114 156,103 156,94 156,92 156,91 156,100 156,109 154,140 152,162 152,182 152,201 154,216 154,228 155,234 156,238 157,238 157,237"/>
  <polyline points="204,112 206,111 210,108 216,100 222,95 229,89 233,88 236,87 238,87 241,87 247,89 254,95 262,104 271,122 275,136 276,152 275,168 270,182 266,195 259,208 249,221 240,230 230,237 221,242 212,245 204,245 199,244 195,239 192,230 191,218 192,209 196,202 201,199 205,199 212,199 219,203 226,210 234,219 243,232 248,236 253,239 257,240 263,241 272,241 283,238 290,234 295,230 297,226 297,225 297,225"/>
  <polyline points="316,118 319,116 323,114 326,113 328,112 331,112 334,111 338,110 340,111 361,133 369,143 373,153 375,162 372,169 367,176 362,179 359,180 355,182 352,182 349,183 343,179 341,177 341,177 341,176 346,176 353,182 362,188 369,196 376,207 377,213 377,218 376,222 373,225 369,227 364,229 359,231 352,233 342,235 333,235 324,231 323,230 323,230 322,229"/>
  <polyline points="451,95 451,95 450,101 449,108 449,116 449,127 449,140 449,156 449,180 449,195 449,207 449,216 448,224 448,228 448,229"/>
  <polyline points="397,103 397,114 397,126 397,147 397,160 397,169 397,174 397,177 397,178 397,178 401,178 411,177 421,177 434,177 444,176 452,176 456,175 459,175 459,175 460,175 461,175 462,175 463,174 464,174 465,174 466,174"/>
  <polyline points="397,103 397,114 397,126 397,147 397,160 397,169 397,174 397,177 397,178 397,178 401,178 411,177 421,177 434,177 444,176 452,176 456,175 459,175 459,175 460,175 461,175 462,175 463,174 464,174 465,174 466,174"/>
</g>
</svg>