<!-- hershey_text.svg -->
<!-- Generated using p5.plotSvg: -->
<!-- A Plotter-Oriented SVG Exporter for p5.js -->
<!-- Thu Jun 26 2025 20:51:10 GMT-0400 (Eastern Daylight Time) -->
<!-- DPI: 96 -->
<svg xmlns="http://www.w3.org/2000/svg" width="6.666666666666667in" height="2.9166666666666665in" viewBox="0 0 640 280">
  <style>
      circle, ellipse, line, path, polygon, polyline, rect, quad, text {
        fill: none;
        stroke: black;
        stroke-width: 1;
        stroke-linecap: round;
        stroke-linejoin: round;
        vector-effect: non-scaling-stroke;
      }
    </style>
<g vector-effect="non-scaling-stroke">
  <g>
    <line x1="59" y1="49" x2="51" y2="70"/>
    <line x1="59" y1="49" x2="67" y2="70"/>
    <line x1="54" y1="63" x2="64" y2="63"/>
    </g>
  <g>
    <line x1="72" y1="49" x2="72" y2="70"/>
    <line x1="72" y1="49" x2="81" y2="49"/>
    <line x1="81" y1="49" x2="84" y2="50"/>
    <line x1="84" y1="50" x2="85" y2="51"/>
    <line x1="85" y1="51" x2="86" y2="53"/>
    <line x1="86" y1="53" x2="86" y2="55"/>
    <line x1="86" y1="55" x2="85" y2="57"/>
    <line x1="85" y1="57" x2="84" y2="58"/>
    <line x1="84" y1="58" x2="81" y2="59"/>
    <line x1="72" y1="59" x2="81" y2="59"/>
    <line x1="81" y1="59" x2="84" y2="60"/>
    <line x1="84" y1="60" x2="85" y2="61"/>
    <line x1="85" y1="61" x2="86" y2="63"/>
    <line x1="86" y1="63" x2="86" y2="66"/>
    <line x1="86" y1="66" x2="85" y2="68"/>
    <line x1="85" y1="68" x2="84" y2="69"/>
    <line x1="84" y1="69" x2="81" y2="70"/>
    <line x1="81" y1="70" x2="72" y2="70"/>
    </g>
  <g>
    <line x1="106" y1="54" x2="105" y2="52"/>
    <line x1="105" y1="52" x2="103" y2="50"/>
    <line x1="103" y1="50" x2="101" y2="49"/>
    <line x1="101" y1="49" x2="97" y2="49"/>
    <line x1="97" y1="49" x2="95" y2="50"/>
    <line x1="95" y1="50" x2="93" y2="52"/>
    <line x1="93" y1="52" x2="92" y2="54"/>
    <line x1="92" y1="54" x2="91" y2="57"/>
    <line x1="91" y1="57" x2="91" y2="62"/>
    <line x1="91" y1="62" x2="92" y2="65"/>
    <line x1="92" y1="65" x2="93" y2="67"/>
    <line x1="93" y1="67" x2="95" y2="69"/>
    <line x1="95" y1="69" x2="97" y2="70"/>
    <line x1="97" y1="70" x2="101" y2="70"/>
    <line x1="101" y1="70" x2="103" y2="69"/>
    <line x1="103" y1="69" x2="105" y2="67"/>
    <line x1="105" y1="67" x2="106" y2="65"/>
    </g>
  <g>
    <line x1="114" y1="49" x2="114" y2="70"/>
    <line x1="114" y1="49" x2="121" y2="49"/>
    <line x1="121" y1="49" x2="124" y2="50"/>
    <line x1="124" y1="50" x2="126" y2="52"/>
    <line x1="126" y1="52" x2="127" y2="54"/>
    <line x1="127" y1="54" x2="128" y2="57"/>
    <line x1="128" y1="57" x2="128" y2="62"/>
    <line x1="128" y1="62" x2="127" y2="65"/>
    <line x1="127" y1="65" x2="126" y2="67"/>
    <line x1="126" y1="67" x2="124" y2="69"/>
    <line x1="124" y1="69" x2="121" y2="70"/>
    <line x1="121" y1="70" x2="114" y2="70"/>
    </g>
  <g>
    <line x1="134" y1="49" x2="134" y2="70"/>
    <line x1="134" y1="49" x2="147" y2="49"/>
    <line x1="134" y1="59" x2="142" y2="59"/>
    <line x1="134" y1="70" x2="147" y2="70"/>
    </g>
  <g>
    <line x1="152" y1="49" x2="152" y2="70"/>
    <line x1="152" y1="49" x2="165" y2="49"/>
    <line x1="152" y1="59" x2="160" y2="59"/>
    </g>
  <g>
    <line x1="182" y1="54" x2="181" y2="52"/>
    <line x1="181" y1="52" x2="179" y2="50"/>
    <line x1="179" y1="50" x2="177" y2="49"/>
    <line x1="177" y1="49" x2="173" y2="49"/>
    <line x1="173" y1="49" x2="171" y2="50"/>
    <line x1="171" y1="50" x2="169" y2="52"/>
    <line x1="169" y1="52" x2="168" y2="54"/>
    <line x1="168" y1="54" x2="167" y2="57"/>
    <line x1="167" y1="57" x2="167" y2="62"/>
    <line x1="167" y1="62" x2="168" y2="65"/>
    <line x1="168" y1="65" x2="169" y2="67"/>
    <line x1="169" y1="67" x2="171" y2="69"/>
    <line x1="171" y1="69" x2="173" y2="70"/>
    <line x1="173" y1="70" x2="177" y2="70"/>
    <line x1="177" y1="70" x2="179" y2="69"/>
    <line x1="179" y1="69" x2="181" y2="67"/>
    <line x1="181" y1="67" x2="182" y2="65"/>
    <line x1="182" y1="65" x2="182" y2="62"/>
    <line x1="177" y1="62" x2="182" y2="62"/>
    </g>
  <g>
    <line x1="190" y1="49" x2="190" y2="70"/>
    <line x1="204" y1="49" x2="204" y2="70"/>
    <line x1="190" y1="59" x2="204" y2="59"/>
    </g>
  <g>
    <line x1="212" y1="49" x2="212" y2="70"/>
    </g>
  <g>
    <line x1="228" y1="49" x2="228" y2="65"/>
    <line x1="228" y1="65" x2="227" y2="68"/>
    <line x1="227" y1="68" x2="226" y2="69"/>
    <line x1="226" y1="69" x2="224" y2="70"/>
    <line x1="224" y1="70" x2="222" y2="70"/>
    <line x1="222" y1="70" x2="220" y2="69"/>
    <line x1="220" y1="69" x2="219" y2="68"/>
    <line x1="219" y1="68" x2="218" y2="65"/>
    <line x1="218" y1="65" x2="218" y2="63"/>
    </g>
  <g>
    <line x1="236" y1="49" x2="236" y2="70"/>
    <line x1="250" y1="49" x2="236" y2="63"/>
    <line x1="241" y1="58" x2="250" y2="70"/>
    </g>
  <g>
    <line x1="256" y1="49" x2="256" y2="70"/>
    <line x1="256" y1="70" x2="268" y2="70"/>
    </g>
  <g>
    <line x1="270" y1="49" x2="270" y2="70"/>
    <line x1="270" y1="49" x2="278" y2="70"/>
    <line x1="286" y1="49" x2="278" y2="70"/>
    <line x1="286" y1="49" x2="286" y2="70"/>
    </g>
  <g>
    <line x1="294" y1="49" x2="294" y2="70"/>
    <line x1="294" y1="49" x2="308" y2="70"/>
    <line x1="308" y1="49" x2="308" y2="70"/>
    </g>
  <g>
    <line x1="321" y1="49" x2="319" y2="50"/>
    <line x1="319" y1="50" x2="317" y2="52"/>
    <line x1="317" y1="52" x2="316" y2="54"/>
    <line x1="316" y1="54" x2="315" y2="57"/>
    <line x1="315" y1="57" x2="315" y2="62"/>
    <line x1="315" y1="62" x2="316" y2="65"/>
    <line x1="316" y1="65" x2="317" y2="67"/>
    <line x1="317" y1="67" x2="319" y2="69"/>
    <line x1="319" y1="69" x2="321" y2="70"/>
    <line x1="321" y1="70" x2="325" y2="70"/>
    <line x1="325" y1="70" x2="327" y2="69"/>
    <line x1="327" y1="69" x2="329" y2="67"/>
    <line x1="329" y1="67" x2="330" y2="65"/>
    <line x1="330" y1="65" x2="331" y2="62"/>
    <line x1="331" y1="62" x2="331" y2="57"/>
    <line x1="331" y1="57" x2="330" y2="54"/>
    <line x1="330" y1="54" x2="329" y2="52"/>
    <line x1="329" y1="52" x2="327" y2="50"/>
    <line x1="327" y1="50" x2="325" y2="49"/>
    <line x1="325" y1="49" x2="321" y2="49"/>
    </g>
  <g>
    <line x1="338" y1="49" x2="338" y2="70"/>
    <line x1="338" y1="49" x2="347" y2="49"/>
    <line x1="347" y1="49" x2="350" y2="50"/>
    <line x1="350" y1="50" x2="351" y2="51"/>
    <line x1="351" y1="51" x2="352" y2="53"/>
    <line x1="352" y1="53" x2="352" y2="56"/>
    <line x1="352" y1="56" x2="351" y2="58"/>
    <line x1="351" y1="58" x2="350" y2="59"/>
    <line x1="350" y1="59" x2="347" y2="60"/>
    <line x1="347" y1="60" x2="338" y2="60"/>
    </g>
  <g>
    <line x1="363" y1="49" x2="361" y2="50"/>
    <line x1="361" y1="50" x2="359" y2="52"/>
    <line x1="359" y1="52" x2="358" y2="54"/>
    <line x1="358" y1="54" x2="357" y2="57"/>
    <line x1="357" y1="57" x2="357" y2="62"/>
    <line x1="357" y1="62" x2="358" y2="65"/>
    <line x1="358" y1="65" x2="359" y2="67"/>
    <line x1="359" y1="67" x2="361" y2="69"/>
    <line x1="361" y1="69" x2="363" y2="70"/>
    <line x1="363" y1="70" x2="367" y2="70"/>
    <line x1="367" y1="70" x2="369" y2="69"/>
    <line x1="369" y1="69" x2="371" y2="67"/>
    <line x1="371" y1="67" x2="372" y2="65"/>
    <line x1="372" y1="65" x2="373" y2="62"/>
    <line x1="373" y1="62" x2="373" y2="57"/>
    <line x1="373" y1="57" x2="372" y2="54"/>
    <line x1="372" y1="54" x2="371" y2="52"/>
    <line x1="371" y1="52" x2="369" y2="50"/>
    <line x1="369" y1="50" x2="367" y2="49"/>
    <line x1="367" y1="49" x2="363" y2="49"/>
    <line x1="366" y1="66" x2="372" y2="72"/>
    </g>
  <g>
    <line x1="380" y1="49" x2="380" y2="70"/>
    <line x1="380" y1="49" x2="389" y2="49"/>
    <line x1="389" y1="49" x2="392" y2="50"/>
    <line x1="392" y1="50" x2="393" y2="51"/>
    <line x1="393" y1="51" x2="394" y2="53"/>
    <line x1="394" y1="53" x2="394" y2="55"/>
    <line x1="394" y1="55" x2="393" y2="57"/>
    <line x1="393" y1="57" x2="392" y2="58"/>
    <line x1="392" y1="58" x2="389" y2="59"/>
    <line x1="389" y1="59" x2="380" y2="59"/>
    <line x1="387" y1="59" x2="394" y2="70"/>
    </g>
  <g>
    <line x1="413" y1="52" x2="411" y2="50"/>
    <line x1="411" y1="50" x2="408" y2="49"/>
    <line x1="408" y1="49" x2="404" y2="49"/>
    <line x1="404" y1="49" x2="401" y2="50"/>
    <line x1="401" y1="50" x2="399" y2="52"/>
    <line x1="399" y1="52" x2="399" y2="54"/>
    <line x1="399" y1="54" x2="400" y2="56"/>
    <line x1="400" y1="56" x2="401" y2="57"/>
    <line x1="401" y1="57" x2="403" y2="58"/>
    <line x1="403" y1="58" x2="409" y2="60"/>
    <line x1="409" y1="60" x2="411" y2="61"/>
    <line x1="411" y1="61" x2="412" y2="62"/>
    <line x1="412" y1="62" x2="413" y2="64"/>
    <line x1="413" y1="64" x2="413" y2="67"/>
    <line x1="413" y1="67" x2="411" y2="69"/>
    <line x1="411" y1="69" x2="408" y2="70"/>
    <line x1="408" y1="70" x2="404" y2="70"/>
    <line x1="404" y1="70" x2="401" y2="69"/>
    <line x1="401" y1="69" x2="399" y2="67"/>
    </g>
  <g>
    <line x1="424" y1="49" x2="424" y2="70"/>
    <line x1="417" y1="49" x2="431" y2="49"/>
    </g>
  <g>
    <line x1="436" y1="49" x2="436" y2="64"/>
    <line x1="436" y1="64" x2="437" y2="67"/>
    <line x1="437" y1="67" x2="439" y2="69"/>
    <line x1="439" y1="69" x2="442" y2="70"/>
    <line x1="442" y1="70" x2="444" y2="70"/>
    <line x1="444" y1="70" x2="447" y2="69"/>
    <line x1="447" y1="69" x2="449" y2="67"/>
    <line x1="449" y1="67" x2="450" y2="64"/>
    <line x1="450" y1="64" x2="450" y2="49"/>
    </g>
  <g>
    <line x1="455" y1="49" x2="463" y2="70"/>
    <line x1="471" y1="49" x2="463" y2="70"/>
    </g>
  <g>
    <line x1="474" y1="49" x2="479" y2="70"/>
    <line x1="484" y1="49" x2="479" y2="70"/>
    <line x1="484" y1="49" x2="489" y2="70"/>
    <line x1="494" y1="49" x2="489" y2="70"/>
    </g>
  <g>
    <line x1="499" y1="49" x2="513" y2="70"/>
    <line x1="513" y1="49" x2="499" y2="70"/>
    </g>
  <g>
    <line x1="517" y1="49" x2="525" y2="59"/>
    <line x1="525" y1="59" x2="525" y2="70"/>
    <line x1="533" y1="49" x2="525" y2="59"/>
    </g>
  <g>
    <line x1="551" y1="49" x2="537" y2="70"/>
    <line x1="537" y1="49" x2="551" y2="49"/>
    <line x1="537" y1="70" x2="551" y2="70"/>
    </g>
  <g>
    <line x1="65" y1="96" x2="65" y2="110"/>
    <line x1="65" y1="99" x2="63" y2="97"/>
    <line x1="63" y1="97" x2="61" y2="96"/>
    <line x1="61" y1="96" x2="58" y2="96"/>
    <line x1="58" y1="96" x2="56" y2="97"/>
    <line x1="56" y1="97" x2="54" y2="99"/>
    <line x1="54" y1="99" x2="53" y2="102"/>
    <line x1="53" y1="102" x2="53" y2="104"/>
    <line x1="53" y1="104" x2="54" y2="107"/>
    <line x1="54" y1="107" x2="56" y2="109"/>
    <line x1="56" y1="109" x2="58" y2="110"/>
    <line x1="58" y1="110" x2="61" y2="110"/>
    <line x1="61" y1="110" x2="63" y2="109"/>
    <line x1="63" y1="109" x2="65" y2="107"/>
    </g>
  <g>
    <line x1="74" y1="89" x2="74" y2="110"/>
    <line x1="74" y1="99" x2="76" y2="97"/>
    <line x1="76" y1="97" x2="78" y2="96"/>
    <line x1="78" y1="96" x2="81" y2="96"/>
    <line x1="81" y1="96" x2="83" y2="97"/>
    <line x1="83" y1="97" x2="85" y2="99"/>
    <line x1="85" y1="99" x2="86" y2="102"/>
    <line x1="86" y1="102" x2="86" y2="104"/>
    <line x1="86" y1="104" x2="85" y2="107"/>
    <line x1="85" y1="107" x2="83" y2="109"/>
    <line x1="83" y1="109" x2="81" y2="110"/>
    <line x1="81" y1="110" x2="78" y2="110"/>
    <line x1="78" y1="110" x2="76" y2="109"/>
    <line x1="76" y1="109" x2="74" y2="107"/>
    </g>
  <g>
    <line x1="103" y1="99" x2="101" y2="97"/>
    <line x1="101" y1="97" x2="99" y2="96"/>
    <line x1="99" y1="96" x2="96" y2="96"/>
    <line x1="96" y1="96" x2="94" y2="97"/>
    <line x1="94" y1="97" x2="92" y2="99"/>
    <line x1="92" y1="99" x2="91" y2="102"/>
    <line x1="91" y1="102" x2="91" y2="104"/>
    <line x1="91" y1="104" x2="92" y2="107"/>
    <line x1="92" y1="107" x2="94" y2="109"/>
    <line x1="94" y1="109" x2="96" y2="110"/>
    <line x1="96" y1="110" x2="99" y2="110"/>
    <line x1="99" y1="110" x2="101" y2="109"/>
    <line x1="101" y1="109" x2="103" y2="107"/>
    </g>
  <g>
    <line x1="121" y1="89" x2="121" y2="110"/>
    <line x1="121" y1="99" x2="119" y2="97"/>
    <line x1="119" y1="97" x2="117" y2="96"/>
    <line x1="117" y1="96" x2="114" y2="96"/>
    <line x1="114" y1="96" x2="112" y2="97"/>
    <line x1="112" y1="97" x2="110" y2="99"/>
    <line x1="110" y1="99" x2="109" y2="102"/>
    <line x1="109" y1="102" x2="109" y2="104"/>
    <line x1="109" y1="104" x2="110" y2="107"/>
    <line x1="110" y1="107" x2="112" y2="109"/>
    <line x1="112" y1="109" x2="114" y2="110"/>
    <line x1="114" y1="110" x2="117" y2="110"/>
    <line x1="117" y1="110" x2="119" y2="109"/>
    <line x1="119" y1="109" x2="121" y2="107"/>
    </g>
  <g>
    <line x1="129" y1="102" x2="141" y2="102"/>
    <line x1="141" y1="102" x2="141" y2="100"/>
    <line x1="141" y1="100" x2="140" y2="98"/>
    <line x1="140" y1="98" x2="139" y2="97"/>
    <line x1="139" y1="97" x2="137" y2="96"/>
    <line x1="137" y1="96" x2="134" y2="96"/>
    <line x1="134" y1="96" x2="132" y2="97"/>
    <line x1="132" y1="97" x2="130" y2="99"/>
    <line x1="130" y1="99" x2="129" y2="102"/>
    <line x1="129" y1="102" x2="129" y2="104"/>
    <line x1="129" y1="104" x2="130" y2="107"/>
    <line x1="130" y1="107" x2="132" y2="109"/>
    <line x1="132" y1="109" x2="134" y2="110"/>
    <line x1="134" y1="110" x2="137" y2="110"/>
    <line x1="137" y1="110" x2="139" y2="109"/>
    <line x1="139" y1="109" x2="141" y2="107"/>
    </g>
  <g>
    <line x1="154" y1="89" x2="152" y2="89"/>
    <line x1="152" y1="89" x2="150" y2="90"/>
    <line x1="150" y1="90" x2="149" y2="93"/>
    <line x1="149" y1="93" x2="149" y2="110"/>
    <line x1="146" y1="96" x2="153" y2="96"/>
    </g>
  <g>
    <line x1="173" y1="96" x2="173" y2="112"/>
    <line x1="173" y1="112" x2="172" y2="115"/>
    <line x1="172" y1="115" x2="171" y2="116"/>
    <line x1="171" y1="116" x2="169" y2="117"/>
    <line x1="169" y1="117" x2="166" y2="117"/>
    <line x1="166" y1="117" x2="164" y2="116"/>
    <line x1="173" y1="99" x2="171" y2="97"/>
    <line x1="171" y1="97" x2="169" y2="96"/>
    <line x1="169" y1="96" x2="166" y2="96"/>
    <line x1="166" y1="96" x2="164" y2="97"/>
    <line x1="164" y1="97" x2="162" y2="99"/>
    <line x1="162" y1="99" x2="161" y2="102"/>
    <line x1="161" y1="102" x2="161" y2="104"/>
    <line x1="161" y1="104" x2="162" y2="107"/>
    <line x1="162" y1="107" x2="164" y2="109"/>
    <line x1="164" y1="109" x2="166" y2="110"/>
    <line x1="166" y1="110" x2="169" y2="110"/>
    <line x1="169" y1="110" x2="171" y2="109"/>
    <line x1="171" y1="109" x2="173" y2="107"/>
    </g>
  <g>
    <line x1="182" y1="89" x2="182" y2="110"/>
    <line x1="182" y1="100" x2="185" y2="97"/>
    <line x1="185" y1="97" x2="187" y2="96"/>
    <line x1="187" y1="96" x2="190" y2="96"/>
    <line x1="190" y1="96" x2="192" y2="97"/>
    <line x1="192" y1="97" x2="193" y2="100"/>
    <line x1="193" y1="100" x2="193" y2="110"/>
    </g>
  <g>
    <line x1="201" y1="89" x2="202" y2="90"/>
    <line x1="202" y1="90" x2="203" y2="89"/>
    <line x1="203" y1="89" x2="202" y2="88"/>
    <line x1="202" y1="88" x2="201" y2="89"/>
    <line x1="202" y1="96" x2="202" y2="110"/>
    </g>
  <g>
    <line x1="211" y1="89" x2="212" y2="90"/>
    <line x1="212" y1="90" x2="213" y2="89"/>
    <line x1="213" y1="89" x2="212" y2="88"/>
    <line x1="212" y1="88" x2="211" y2="89"/>
    <line x1="212" y1="96" x2="212" y2="113"/>
    <line x1="212" y1="113" x2="211" y2="116"/>
    <line x1="211" y1="116" x2="209" y2="117"/>
    <line x1="209" y1="117" x2="207" y2="117"/>
    </g>
  <g>
    <line x1="220" y1="89" x2="220" y2="110"/>
    <line x1="230" y1="96" x2="220" y2="106"/>
    <line x1="224" y1="102" x2="231" y2="110"/>
    </g>
  <g>
    <line x1="236" y1="89" x2="236" y2="110"/>
    </g>
  <g>
    <line x1="244" y1="96" x2="244" y2="110"/>
    <line x1="244" y1="100" x2="247" y2="97"/>
    <line x1="247" y1="97" x2="249" y2="96"/>
    <line x1="249" y1="96" x2="252" y2="96"/>
    <line x1="252" y1="96" x2="254" y2="97"/>
    <line x1="254" y1="97" x2="255" y2="100"/>
    <line x1="255" y1="100" x2="255" y2="110"/>
    <line x1="255" y1="100" x2="258" y2="97"/>
    <line x1="258" y1="97" x2="260" y2="96"/>
    <line x1="260" y1="96" x2="263" y2="96"/>
    <line x1="263" y1="96" x2="265" y2="97"/>
    <line x1="265" y1="97" x2="266" y2="100"/>
    <line x1="266" y1="100" x2="266" y2="110"/>
    </g>
  <g>
    <line x1="274" y1="96" x2="274" y2="110"/>
    <line x1="274" y1="100" x2="277" y2="97"/>
    <line x1="277" y1="97" x2="279" y2="96"/>
    <line x1="279" y1="96" x2="282" y2="96"/>
    <line x1="282" y1="96" x2="284" y2="97"/>
    <line x1="284" y1="97" x2="285" y2="100"/>
    <line x1="285" y1="100" x2="285" y2="110"/>
    </g>
  <g>
    <line x1="298" y1="96" x2="296" y2="97"/>
    <line x1="296" y1="97" x2="294" y2="99"/>
    <line x1="294" y1="99" x2="293" y2="102"/>
    <line x1="293" y1="102" x2="293" y2="104"/>
    <line x1="293" y1="104" x2="294" y2="107"/>
    <line x1="294" y1="107" x2="296" y2="109"/>
    <line x1="296" y1="109" x2="298" y2="110"/>
    <line x1="298" y1="110" x2="301" y2="110"/>
    <line x1="301" y1="110" x2="303" y2="109"/>
    <line x1="303" y1="109" x2="305" y2="107"/>
    <line x1="305" y1="107" x2="306" y2="104"/>
    <line x1="306" y1="104" x2="306" y2="102"/>
    <line x1="306" y1="102" x2="305" y2="99"/>
    <line x1="305" y1="99" x2="303" y2="97"/>
    <line x1="303" y1="97" x2="301" y2="96"/>
    <line x1="301" y1="96" x2="298" y2="96"/>
    </g>
  <g>
    <line x1="314" y1="96" x2="314" y2="117"/>
    <line x1="314" y1="99" x2="316" y2="97"/>
    <line x1="316" y1="97" x2="318" y2="96"/>
    <line x1="318" y1="96" x2="321" y2="96"/>
    <line x1="321" y1="96" x2="323" y2="97"/>
    <line x1="323" y1="97" x2="325" y2="99"/>
    <line x1="325" y1="99" x2="326" y2="102"/>
    <line x1="326" y1="102" x2="326" y2="104"/>
    <line x1="326" y1="104" x2="325" y2="107"/>
    <line x1="325" y1="107" x2="323" y2="109"/>
    <line x1="323" y1="109" x2="321" y2="110"/>
    <line x1="321" y1="110" x2="318" y2="110"/>
    <line x1="318" y1="110" x2="316" y2="109"/>
    <line x1="316" y1="109" x2="314" y2="107"/>
    </g>
  <g>
    <line x1="343" y1="96" x2="343" y2="117"/>
    <line x1="343" y1="99" x2="341" y2="97"/>
    <line x1="341" y1="97" x2="339" y2="96"/>
    <line x1="339" y1="96" x2="336" y2="96"/>
    <line x1="336" y1="96" x2="334" y2="97"/>
    <line x1="334" y1="97" x2="332" y2="99"/>
    <line x1="332" y1="99" x2="331" y2="102"/>
    <line x1="331" y1="102" x2="331" y2="104"/>
    <line x1="331" y1="104" x2="332" y2="107"/>
    <line x1="332" y1="107" x2="334" y2="109"/>
    <line x1="334" y1="109" x2="336" y2="110"/>
    <line x1="336" y1="110" x2="339" y2="110"/>
    <line x1="339" y1="110" x2="341" y2="109"/>
    <line x1="341" y1="109" x2="343" y2="107"/>
    </g>
  <g>
    <line x1="352" y1="96" x2="352" y2="110"/>
    <line x1="352" y1="102" x2="353" y2="99"/>
    <line x1="353" y1="99" x2="355" y2="97"/>
    <line x1="355" y1="97" x2="357" y2="96"/>
    <line x1="357" y1="96" x2="360" y2="96"/>
    </g>
  <g>
    <line x1="374" y1="99" x2="373" y2="97"/>
    <line x1="373" y1="97" x2="370" y2="96"/>
    <line x1="370" y1="96" x2="367" y2="96"/>
    <line x1="367" y1="96" x2="364" y2="97"/>
    <line x1="364" y1="97" x2="363" y2="99"/>
    <line x1="363" y1="99" x2="364" y2="101"/>
    <line x1="364" y1="101" x2="366" y2="102"/>
    <line x1="366" y1="102" x2="371" y2="103"/>
    <line x1="371" y1="103" x2="373" y2="104"/>
    <line x1="373" y1="104" x2="374" y2="106"/>
    <line x1="374" y1="106" x2="374" y2="107"/>
    <line x1="374" y1="107" x2="373" y2="109"/>
    <line x1="373" y1="109" x2="370" y2="110"/>
    <line x1="370" y1="110" x2="367" y2="110"/>
    <line x1="367" y1="110" x2="364" y2="109"/>
    <line x1="364" y1="109" x2="363" y2="107"/>
    </g>
  <g>
    <line x1="383" y1="89" x2="383" y2="106"/>
    <line x1="383" y1="106" x2="384" y2="109"/>
    <line x1="384" y1="109" x2="386" y2="110"/>
    <line x1="386" y1="110" x2="388" y2="110"/>
    <line x1="380" y1="96" x2="387" y2="96"/>
    </g>
  <g>
    <line x1="396" y1="96" x2="396" y2="106"/>
    <line x1="396" y1="106" x2="397" y2="109"/>
    <line x1="397" y1="109" x2="399" y2="110"/>
    <line x1="399" y1="110" x2="402" y2="110"/>
    <line x1="402" y1="110" x2="404" y2="109"/>
    <line x1="404" y1="109" x2="407" y2="106"/>
    <line x1="407" y1="96" x2="407" y2="110"/>
    </g>
  <g>
    <line x1="414" y1="96" x2="420" y2="110"/>
    <line x1="426" y1="96" x2="420" y2="110"/>
    </g>
  <g>
    <line x1="431" y1="96" x2="435" y2="110"/>
    <line x1="439" y1="96" x2="435" y2="110"/>
    <line x1="439" y1="96" x2="443" y2="110"/>
    <line x1="447" y1="96" x2="443" y2="110"/>
    </g>
  <g>
    <line x1="453" y1="96" x2="464" y2="110"/>
    <line x1="464" y1="96" x2="453" y2="110"/>
    </g>
  <g>
    <line x1="470" y1="96" x2="476" y2="110"/>
    <line x1="482" y1="96" x2="476" y2="110"/>
    <line x1="476" y1="110" x2="474" y2="114"/>
    <line x1="474" y1="114" x2="472" y2="116"/>
    <line x1="472" y1="116" x2="470" y2="117"/>
    <line x1="470" y1="117" x2="469" y2="117"/>
    </g>
  <g>
    <line x1="498" y1="96" x2="487" y2="110"/>
    <line x1="487" y1="96" x2="498" y2="96"/>
    <line x1="487" y1="110" x2="498" y2="110"/>
    </g>
  <g>
    <line x1="56" y1="133" x2="58" y2="132"/>
    <line x1="58" y1="132" x2="61" y2="129"/>
    <line x1="61" y1="129" x2="61" y2="150"/>
    </g>
  <g>
    <line x1="74" y1="134" x2="74" y2="133"/>
    <line x1="74" y1="133" x2="75" y2="131"/>
    <line x1="75" y1="131" x2="76" y2="130"/>
    <line x1="76" y1="130" x2="78" y2="129"/>
    <line x1="78" y1="129" x2="82" y2="129"/>
    <line x1="82" y1="129" x2="84" y2="130"/>
    <line x1="84" y1="130" x2="85" y2="131"/>
    <line x1="85" y1="131" x2="86" y2="133"/>
    <line x1="86" y1="133" x2="86" y2="135"/>
    <line x1="86" y1="135" x2="85" y2="137"/>
    <line x1="85" y1="137" x2="83" y2="140"/>
    <line x1="83" y1="140" x2="73" y2="150"/>
    <line x1="73" y1="150" x2="87" y2="150"/>
    </g>
  <g>
    <line x1="95" y1="129" x2="106" y2="129"/>
    <line x1="106" y1="129" x2="100" y2="137"/>
    <line x1="100" y1="137" x2="103" y2="137"/>
    <line x1="103" y1="137" x2="105" y2="138"/>
    <line x1="105" y1="138" x2="106" y2="139"/>
    <line x1="106" y1="139" x2="107" y2="142"/>
    <line x1="107" y1="142" x2="107" y2="144"/>
    <line x1="107" y1="144" x2="106" y2="147"/>
    <line x1="106" y1="147" x2="104" y2="149"/>
    <line x1="104" y1="149" x2="101" y2="150"/>
    <line x1="101" y1="150" x2="98" y2="150"/>
    <line x1="98" y1="150" x2="95" y2="149"/>
    <line x1="95" y1="149" x2="94" y2="148"/>
    <line x1="94" y1="148" x2="93" y2="146"/>
    </g>
  <g>
    <line x1="123" y1="129" x2="113" y2="143"/>
    <line x1="113" y1="143" x2="128" y2="143"/>
    <line x1="123" y1="129" x2="123" y2="150"/>
    </g>
  <g>
    <line x1="145" y1="129" x2="135" y2="129"/>
    <line x1="135" y1="129" x2="134" y2="138"/>
    <line x1="134" y1="138" x2="135" y2="137"/>
    <line x1="135" y1="137" x2="138" y2="136"/>
    <line x1="138" y1="136" x2="141" y2="136"/>
    <line x1="141" y1="136" x2="144" y2="137"/>
    <line x1="144" y1="137" x2="146" y2="139"/>
    <line x1="146" y1="139" x2="147" y2="142"/>
    <line x1="147" y1="142" x2="147" y2="144"/>
    <line x1="147" y1="144" x2="146" y2="147"/>
    <line x1="146" y1="147" x2="144" y2="149"/>
    <line x1="144" y1="149" x2="141" y2="150"/>
    <line x1="141" y1="150" x2="138" y2="150"/>
    <line x1="138" y1="150" x2="135" y2="149"/>
    <line x1="135" y1="149" x2="134" y2="148"/>
    <line x1="134" y1="148" x2="133" y2="146"/>
    </g>
  <g>
    <line x1="166" y1="132" x2="165" y2="130"/>
    <line x1="165" y1="130" x2="162" y2="129"/>
    <line x1="162" y1="129" x2="160" y2="129"/>
    <line x1="160" y1="129" x2="157" y2="130"/>
    <line x1="157" y1="130" x2="155" y2="133"/>
    <line x1="155" y1="133" x2="154" y2="138"/>
    <line x1="154" y1="138" x2="154" y2="143"/>
    <line x1="154" y1="143" x2="155" y2="147"/>
    <line x1="155" y1="147" x2="157" y2="149"/>
    <line x1="157" y1="149" x2="160" y2="150"/>
    <line x1="160" y1="150" x2="161" y2="150"/>
    <line x1="161" y1="150" x2="164" y2="149"/>
    <line x1="164" y1="149" x2="166" y2="147"/>
    <line x1="166" y1="147" x2="167" y2="144"/>
    <line x1="167" y1="144" x2="167" y2="143"/>
    <line x1="167" y1="143" x2="166" y2="140"/>
    <line x1="166" y1="140" x2="164" y2="138"/>
    <line x1="164" y1="138" x2="161" y2="137"/>
    <line x1="161" y1="137" x2="160" y2="137"/>
    <line x1="160" y1="137" x2="157" y2="138"/>
    <line x1="157" y1="138" x2="155" y2="140"/>
    <line x1="155" y1="140" x2="154" y2="143"/>
    </g>
  <g>
    <line x1="187" y1="129" x2="177" y2="150"/>
    <line x1="173" y1="129" x2="187" y2="129"/>
    </g>
  <g>
    <line x1="198" y1="129" x2="195" y2="130"/>
    <line x1="195" y1="130" x2="194" y2="132"/>
    <line x1="194" y1="132" x2="194" y2="134"/>
    <line x1="194" y1="134" x2="195" y2="136"/>
    <line x1="195" y1="136" x2="197" y2="137"/>
    <line x1="197" y1="137" x2="201" y2="138"/>
    <line x1="201" y1="138" x2="204" y2="139"/>
    <line x1="204" y1="139" x2="206" y2="141"/>
    <line x1="206" y1="141" x2="207" y2="143"/>
    <line x1="207" y1="143" x2="207" y2="146"/>
    <line x1="207" y1="146" x2="206" y2="148"/>
    <line x1="206" y1="148" x2="205" y2="149"/>
    <line x1="205" y1="149" x2="202" y2="150"/>
    <line x1="202" y1="150" x2="198" y2="150"/>
    <line x1="198" y1="150" x2="195" y2="149"/>
    <line x1="195" y1="149" x2="194" y2="148"/>
    <line x1="194" y1="148" x2="193" y2="146"/>
    <line x1="193" y1="146" x2="193" y2="143"/>
    <line x1="193" y1="143" x2="194" y2="141"/>
    <line x1="194" y1="141" x2="196" y2="139"/>
    <line x1="196" y1="139" x2="199" y2="138"/>
    <line x1="199" y1="138" x2="203" y2="137"/>
    <line x1="203" y1="137" x2="205" y2="136"/>
    <line x1="205" y1="136" x2="206" y2="134"/>
    <line x1="206" y1="134" x2="206" y2="132"/>
    <line x1="206" y1="132" x2="205" y2="130"/>
    <line x1="205" y1="130" x2="202" y2="129"/>
    <line x1="202" y1="129" x2="198" y2="129"/>
    </g>
  <g>
    <line x1="226" y1="136" x2="225" y2="139"/>
    <line x1="225" y1="139" x2="223" y2="141"/>
    <line x1="223" y1="141" x2="220" y2="142"/>
    <line x1="220" y1="142" x2="219" y2="142"/>
    <line x1="219" y1="142" x2="216" y2="141"/>
    <line x1="216" y1="141" x2="214" y2="139"/>
    <line x1="214" y1="139" x2="213" y2="136"/>
    <line x1="213" y1="136" x2="213" y2="135"/>
    <line x1="213" y1="135" x2="214" y2="132"/>
    <line x1="214" y1="132" x2="216" y2="130"/>
    <line x1="216" y1="130" x2="219" y2="129"/>
    <line x1="219" y1="129" x2="220" y2="129"/>
    <line x1="220" y1="129" x2="223" y2="130"/>
    <line x1="223" y1="130" x2="225" y2="132"/>
    <line x1="225" y1="132" x2="226" y2="136"/>
    <line x1="226" y1="136" x2="226" y2="141"/>
    <line x1="226" y1="141" x2="225" y2="146"/>
    <line x1="225" y1="146" x2="223" y2="149"/>
    <line x1="223" y1="149" x2="220" y2="150"/>
    <line x1="220" y1="150" x2="218" y2="150"/>
    <line x1="218" y1="150" x2="215" y2="149"/>
    <line x1="215" y1="149" x2="214" y2="147"/>
    </g>
  <g>
    <line x1="239" y1="129" x2="236" y2="130"/>
    <line x1="236" y1="130" x2="234" y2="133"/>
    <line x1="234" y1="133" x2="233" y2="138"/>
    <line x1="233" y1="138" x2="233" y2="141"/>
    <line x1="233" y1="141" x2="234" y2="146"/>
    <line x1="234" y1="146" x2="236" y2="149"/>
    <line x1="236" y1="149" x2="239" y2="150"/>
    <line x1="239" y1="150" x2="241" y2="150"/>
    <line x1="241" y1="150" x2="244" y2="149"/>
    <line x1="244" y1="149" x2="246" y2="146"/>
    <line x1="246" y1="146" x2="247" y2="141"/>
    <line x1="247" y1="141" x2="247" y2="138"/>
    <line x1="247" y1="138" x2="246" y2="133"/>
    <line x1="246" y1="133" x2="244" y2="130"/>
    <line x1="244" y1="130" x2="241" y2="129"/>
    <line x1="241" y1="129" x2="239" y2="129"/>
    </g>
  <g>
    <line x1="55" y1="169" x2="55" y2="183"/>
    <line x1="55" y1="188" x2="54" y2="189"/>
    <line x1="54" y1="189" x2="55" y2="190"/>
    <line x1="55" y1="190" x2="56" y2="189"/>
    <line x1="56" y1="189" x2="55" y2="188"/>
    </g>
  <g>
    <line x1="78" y1="177" x2="77" y2="175"/>
    <line x1="77" y1="175" x2="75" y2="174"/>
    <line x1="75" y1="174" x2="72" y2="174"/>
    <line x1="72" y1="174" x2="70" y2="175"/>
    <line x1="70" y1="175" x2="69" y2="176"/>
    <line x1="69" y1="176" x2="68" y2="179"/>
    <line x1="68" y1="179" x2="68" y2="182"/>
    <line x1="68" y1="182" x2="69" y2="184"/>
    <line x1="69" y1="184" x2="71" y2="185"/>
    <line x1="71" y1="185" x2="74" y2="185"/>
    <line x1="74" y1="185" x2="76" y2="184"/>
    <line x1="76" y1="184" x2="77" y2="182"/>
    <line x1="72" y1="174" x2="70" y2="176"/>
    <line x1="70" y1="176" x2="69" y2="179"/>
    <line x1="69" y1="179" x2="69" y2="182"/>
    <line x1="69" y1="182" x2="70" y2="184"/>
    <line x1="70" y1="184" x2="71" y2="185"/>
    <line x1="78" y1="174" x2="77" y2="182"/>
    <line x1="77" y1="182" x2="77" y2="184"/>
    <line x1="77" y1="184" x2="79" y2="185"/>
    <line x1="79" y1="185" x2="81" y2="185"/>
    <line x1="81" y1="185" x2="83" y2="183"/>
    <line x1="83" y1="183" x2="84" y2="180"/>
    <line x1="84" y1="180" x2="84" y2="178"/>
    <line x1="84" y1="178" x2="83" y2="175"/>
    <line x1="83" y1="175" x2="82" y2="173"/>
    <line x1="82" y1="173" x2="80" y2="171"/>
    <line x1="80" y1="171" x2="78" y2="170"/>
    <line x1="78" y1="170" x2="75" y2="169"/>
    <line x1="75" y1="169" x2="72" y2="169"/>
    <line x1="72" y1="169" x2="69" y2="170"/>
    <line x1="69" y1="170" x2="67" y2="171"/>
    <line x1="67" y1="171" x2="65" y2="173"/>
    <line x1="65" y1="173" x2="64" y2="175"/>
    <line x1="64" y1="175" x2="63" y2="178"/>
    <line x1="63" y1="178" x2="63" y2="181"/>
    <line x1="63" y1="181" x2="64" y2="184"/>
    <line x1="64" y1="184" x2="65" y2="186"/>
    <line x1="65" y1="186" x2="67" y2="188"/>
    <line x1="67" y1="188" x2="69" y2="189"/>
    <line x1="69" y1="189" x2="72" y2="190"/>
    <line x1="72" y1="190" x2="75" y2="190"/>
    <line x1="75" y1="190" x2="78" y2="189"/>
    <line x1="78" y1="189" x2="80" y2="188"/>
    <line x1="80" y1="188" x2="81" y2="187"/>
    <line x1="79" y1="174" x2="78" y2="182"/>
    <line x1="78" y1="182" x2="78" y2="184"/>
    <line x1="78" y1="184" x2="79" y2="185"/>
    </g>
  <g>
    <line x1="99" y1="165" x2="92" y2="197"/>
    <line x1="105" y1="165" x2="98" y2="197"/>
    <line x1="92" y1="178" x2="106" y2="178"/>
    <line x1="91" y1="184" x2="105" y2="184"/>
    </g>
  <g>
    <line x1="118" y1="165" x2="118" y2="194"/>
    <line x1="122" y1="165" x2="122" y2="194"/>
    <line x1="127" y1="172" x2="125" y2="170"/>
    <line x1="125" y1="170" x2="122" y2="169"/>
    <line x1="122" y1="169" x2="118" y2="169"/>
    <line x1="118" y1="169" x2="115" y2="170"/>
    <line x1="115" y1="170" x2="113" y2="172"/>
    <line x1="113" y1="172" x2="113" y2="174"/>
    <line x1="113" y1="174" x2="114" y2="176"/>
    <line x1="114" y1="176" x2="115" y2="177"/>
    <line x1="115" y1="177" x2="117" y2="178"/>
    <line x1="117" y1="178" x2="123" y2="180"/>
    <line x1="123" y1="180" x2="125" y2="181"/>
    <line x1="125" y1="181" x2="126" y2="182"/>
    <line x1="126" y1="182" x2="127" y2="184"/>
    <line x1="127" y1="184" x2="127" y2="187"/>
    <line x1="127" y1="187" x2="125" y2="189"/>
    <line x1="125" y1="189" x2="122" y2="190"/>
    <line x1="122" y1="190" x2="118" y2="190"/>
    <line x1="118" y1="190" x2="115" y2="189"/>
    <line x1="115" y1="189" x2="113" y2="187"/>
    </g>
  <g>
    <line x1="151" y1="169" x2="133" y2="190"/>
    <line x1="138" y1="169" x2="140" y2="171"/>
    <line x1="140" y1="171" x2="140" y2="173"/>
    <line x1="140" y1="173" x2="139" y2="175"/>
    <line x1="139" y1="175" x2="137" y2="176"/>
    <line x1="137" y1="176" x2="135" y2="176"/>
    <line x1="135" y1="176" x2="133" y2="174"/>
    <line x1="133" y1="174" x2="133" y2="172"/>
    <line x1="133" y1="172" x2="134" y2="170"/>
    <line x1="134" y1="170" x2="136" y2="169"/>
    <line x1="136" y1="169" x2="138" y2="169"/>
    <line x1="138" y1="169" x2="140" y2="170"/>
    <line x1="140" y1="170" x2="143" y2="171"/>
    <line x1="143" y1="171" x2="146" y2="171"/>
    <line x1="146" y1="171" x2="149" y2="170"/>
    <line x1="149" y1="170" x2="151" y2="169"/>
    <line x1="147" y1="183" x2="145" y2="184"/>
    <line x1="145" y1="184" x2="144" y2="186"/>
    <line x1="144" y1="186" x2="144" y2="188"/>
    <line x1="144" y1="188" x2="146" y2="190"/>
    <line x1="146" y1="190" x2="148" y2="190"/>
    <line x1="148" y1="190" x2="150" y2="189"/>
    <line x1="150" y1="189" x2="151" y2="187"/>
    <line x1="151" y1="187" x2="151" y2="185"/>
    <line x1="151" y1="185" x2="149" y2="183"/>
    <line x1="149" y1="183" x2="147" y2="183"/>
    </g>
  <g>
    <line x1="162" y1="167" x2="154" y2="181"/>
    <line x1="162" y1="167" x2="170" y2="181"/>
    </g>
  <g>
    <line x1="193" y1="178" x2="193" y2="177"/>
    <line x1="193" y1="177" x2="192" y2="176"/>
    <line x1="192" y1="176" x2="191" y2="176"/>
    <line x1="191" y1="176" x2="190" y2="177"/>
    <line x1="190" y1="177" x2="189" y2="179"/>
    <line x1="189" y1="179" x2="187" y2="184"/>
    <line x1="187" y1="184" x2="185" y2="187"/>
    <line x1="185" y1="187" x2="183" y2="189"/>
    <line x1="183" y1="189" x2="181" y2="190"/>
    <line x1="181" y1="190" x2="177" y2="190"/>
    <line x1="177" y1="190" x2="175" y2="189"/>
    <line x1="175" y1="189" x2="174" y2="188"/>
    <line x1="174" y1="188" x2="173" y2="186"/>
    <line x1="173" y1="186" x2="173" y2="184"/>
    <line x1="173" y1="184" x2="174" y2="182"/>
    <line x1="174" y1="182" x2="175" y2="181"/>
    <line x1="175" y1="181" x2="182" y2="177"/>
    <line x1="182" y1="177" x2="183" y2="176"/>
    <line x1="183" y1="176" x2="184" y2="174"/>
    <line x1="184" y1="174" x2="184" y2="172"/>
    <line x1="184" y1="172" x2="183" y2="170"/>
    <line x1="183" y1="170" x2="181" y2="169"/>
    <line x1="181" y1="169" x2="179" y2="170"/>
    <line x1="179" y1="170" x2="178" y2="172"/>
    <line x1="178" y1="172" x2="178" y2="174"/>
    <line x1="178" y1="174" x2="179" y2="177"/>
    <line x1="179" y1="177" x2="181" y2="180"/>
    <line x1="181" y1="180" x2="186" y2="187"/>
    <line x1="186" y1="187" x2="188" y2="189"/>
    <line x1="188" y1="189" x2="190" y2="190"/>
    <line x1="190" y1="190" x2="192" y2="190"/>
    <line x1="192" y1="190" x2="193" y2="189"/>
    <line x1="193" y1="189" x2="193" y2="188"/>
    </g>
  <g>
    <line x1="204" y1="175" x2="204" y2="187"/>
    <line x1="199" y1="178" x2="209" y2="184"/>
    <line x1="209" y1="178" x2="199" y2="184"/>
    </g>
  <g>
    <line x1="223" y1="165" x2="221" y2="167"/>
    <line x1="221" y1="167" x2="219" y2="170"/>
    <line x1="219" y1="170" x2="217" y2="174"/>
    <line x1="217" y1="174" x2="216" y2="179"/>
    <line x1="216" y1="179" x2="216" y2="183"/>
    <line x1="216" y1="183" x2="217" y2="188"/>
    <line x1="217" y1="188" x2="219" y2="192"/>
    <line x1="219" y1="192" x2="221" y2="195"/>
    <line x1="221" y1="195" x2="223" y2="197"/>
    </g>
  <g>
    <line x1="229" y1="165" x2="231" y2="167"/>
    <line x1="231" y1="167" x2="233" y2="170"/>
    <line x1="233" y1="170" x2="235" y2="174"/>
    <line x1="235" y1="174" x2="236" y2="179"/>
    <line x1="236" y1="179" x2="236" y2="183"/>
    <line x1="236" y1="183" x2="235" y2="188"/>
    <line x1="235" y1="188" x2="233" y2="192"/>
    <line x1="233" y1="192" x2="231" y2="195"/>
    <line x1="231" y1="195" x2="229" y2="197"/>
    </g>
  <g>
    <line x1="243" y1="174" x2="243" y2="173"/>
    <line x1="243" y1="173" x2="244" y2="171"/>
    <line x1="244" y1="171" x2="245" y2="170"/>
    <line x1="245" y1="170" x2="247" y2="169"/>
    <line x1="247" y1="169" x2="251" y2="169"/>
    <line x1="251" y1="169" x2="253" y2="170"/>
    <line x1="253" y1="170" x2="254" y2="171"/>
    <line x1="254" y1="171" x2="255" y2="173"/>
    <line x1="255" y1="173" x2="255" y2="175"/>
    <line x1="255" y1="175" x2="254" y2="177"/>
    <line x1="254" y1="177" x2="253" y2="178"/>
    <line x1="253" y1="178" x2="249" y2="180"/>
    <line x1="249" y1="180" x2="249" y2="183"/>
    <line x1="249" y1="188" x2="248" y2="189"/>
    <line x1="248" y1="189" x2="249" y2="190"/>
    <line x1="249" y1="190" x2="250" y2="189"/>
    <line x1="250" y1="189" x2="249" y2="188"/>
    </g>
  <g>
    <line x1="267" y1="165" x2="265" y2="166"/>
    <line x1="265" y1="166" x2="264" y2="167"/>
    <line x1="264" y1="167" x2="263" y2="169"/>
    <line x1="263" y1="169" x2="263" y2="171"/>
    <line x1="263" y1="171" x2="264" y2="173"/>
    <line x1="264" y1="173" x2="265" y2="174"/>
    <line x1="265" y1="174" x2="266" y2="176"/>
    <line x1="266" y1="176" x2="266" y2="178"/>
    <line x1="266" y1="178" x2="264" y2="180"/>
    <line x1="265" y1="166" x2="264" y2="168"/>
    <line x1="264" y1="168" x2="264" y2="170"/>
    <line x1="264" y1="170" x2="265" y2="172"/>
    <line x1="265" y1="172" x2="266" y2="173"/>
    <line x1="266" y1="173" x2="267" y2="175"/>
    <line x1="267" y1="175" x2="267" y2="177"/>
    <line x1="267" y1="177" x2="266" y2="179"/>
    <line x1="266" y1="179" x2="262" y2="181"/>
    <line x1="262" y1="181" x2="266" y2="183"/>
    <line x1="266" y1="183" x2="267" y2="185"/>
    <line x1="267" y1="185" x2="267" y2="187"/>
    <line x1="267" y1="187" x2="266" y2="189"/>
    <line x1="266" y1="189" x2="265" y2="190"/>
    <line x1="265" y1="190" x2="264" y2="192"/>
    <line x1="264" y1="192" x2="264" y2="194"/>
    <line x1="264" y1="194" x2="265" y2="196"/>
    <line x1="264" y1="182" x2="266" y2="184"/>
    <line x1="266" y1="184" x2="266" y2="186"/>
    <line x1="266" y1="186" x2="265" y2="188"/>
    <line x1="265" y1="188" x2="264" y2="189"/>
    <line x1="264" y1="189" x2="263" y2="191"/>
    <line x1="263" y1="191" x2="263" y2="193"/>
    <line x1="263" y1="193" x2="264" y2="195"/>
    <line x1="264" y1="195" x2="265" y2="196"/>
    <line x1="265" y1="196" x2="267" y2="197"/>
    </g>
  <g>
    <line x1="277" y1="165" x2="279" y2="166"/>
    <line x1="279" y1="166" x2="280" y2="167"/>
    <line x1="280" y1="167" x2="281" y2="169"/>
    <line x1="281" y1="169" x2="281" y2="171"/>
    <line x1="281" y1="171" x2="280" y2="173"/>
    <line x1="280" y1="173" x2="279" y2="174"/>
    <line x1="279" y1="174" x2="278" y2="176"/>
    <line x1="278" y1="176" x2="278" y2="178"/>
    <line x1="278" y1="178" x2="280" y2="180"/>
    <line x1="279" y1="166" x2="280" y2="168"/>
    <line x1="280" y1="168" x2="280" y2="170"/>
    <line x1="280" y1="170" x2="279" y2="172"/>
    <line x1="279" y1="172" x2="278" y2="173"/>
    <line x1="278" y1="173" x2="277" y2="175"/>
    <line x1="277" y1="175" x2="277" y2="177"/>
    <line x1="277" y1="177" x2="278" y2="179"/>
    <line x1="278" y1="179" x2="282" y2="181"/>
    <line x1="282" y1="181" x2="278" y2="183"/>
    <line x1="278" y1="183" x2="277" y2="185"/>
    <line x1="277" y1="185" x2="277" y2="187"/>
    <line x1="277" y1="187" x2="278" y2="189"/>
    <line x1="278" y1="189" x2="279" y2="190"/>
    <line x1="279" y1="190" x2="280" y2="192"/>
    <line x1="280" y1="192" x2="280" y2="194"/>
    <line x1="280" y1="194" x2="279" y2="196"/>
    <line x1="280" y1="182" x2="278" y2="184"/>
    <line x1="278" y1="184" x2="278" y2="186"/>
    <line x1="278" y1="186" x2="279" y2="188"/>
    <line x1="279" y1="188" x2="280" y2="189"/>
    <line x1="280" y1="189" x2="281" y2="191"/>
    <line x1="281" y1="191" x2="281" y2="193"/>
    <line x1="281" y1="193" x2="280" y2="195"/>
    <line x1="280" y1="195" x2="279" y2="196"/>
    <line x1="279" y1="196" x2="277" y2="197"/>
    </g>
  <g>
    <line x1="290" y1="165" x2="290" y2="197"/>
    <line x1="291" y1="165" x2="291" y2="197"/>
    <line x1="290" y1="165" x2="297" y2="165"/>
    <line x1="290" y1="197" x2="297" y2="197"/>
    </g>
  <g>
    <line x1="309" y1="165" x2="309" y2="197"/>
    <line x1="310" y1="165" x2="310" y2="197"/>
    <line x1="303" y1="165" x2="310" y2="165"/>
    <line x1="303" y1="197" x2="310" y2="197"/>
    </g>
  <g>
    <line x1="325" y1="165" x2="323" y2="167"/>
    <line x1="323" y1="167" x2="321" y2="170"/>
    <line x1="321" y1="170" x2="319" y2="174"/>
    <line x1="319" y1="174" x2="318" y2="179"/>
    <line x1="318" y1="179" x2="318" y2="183"/>
    <line x1="318" y1="183" x2="319" y2="188"/>
    <line x1="319" y1="188" x2="321" y2="192"/>
    <line x1="321" y1="192" x2="323" y2="195"/>
    <line x1="323" y1="195" x2="325" y2="197"/>
    </g>
  <g>
    <line x1="331" y1="165" x2="333" y2="167"/>
    <line x1="333" y1="167" x2="335" y2="170"/>
    <line x1="335" y1="170" x2="337" y2="174"/>
    <line x1="337" y1="174" x2="338" y2="179"/>
    <line x1="338" y1="179" x2="338" y2="183"/>
    <line x1="338" y1="183" x2="337" y2="188"/>
    <line x1="337" y1="188" x2="335" y2="192"/>
    <line x1="335" y1="192" x2="333" y2="195"/>
    <line x1="333" y1="195" x2="331" y2="197"/>
    </g>
  <g>
    <line x1="362" y1="172" x2="346" y2="181"/>
    <line x1="346" y1="181" x2="362" y2="190"/>
    </g>
  <g>
    <line x1="370" y1="172" x2="386" y2="181"/>
    <line x1="386" y1="181" x2="370" y2="190"/>
    </g>
  <g>
    <line x1="395" y1="186" x2="394" y2="187"/>
    <line x1="394" y1="187" x2="393" y2="186"/>
    <line x1="393" y1="186" x2="394" y2="185"/>
    <line x1="394" y1="185" x2="395" y2="186"/>
    <line x1="395" y1="186" x2="395" y2="188"/>
    <line x1="395" y1="188" x2="393" y2="190"/>
    </g>
  <g>
    <line x1="402" y1="185" x2="401" y2="186"/>
    <line x1="401" y1="186" x2="402" y2="187"/>
    <line x1="402" y1="187" x2="403" y2="186"/>
    <line x1="403" y1="186" x2="402" y2="185"/>
    </g>
  <g>
    <line x1="410" y1="178" x2="409" y2="179"/>
    <line x1="409" y1="179" x2="410" y2="180"/>
    <line x1="410" y1="180" x2="411" y2="179"/>
    <line x1="411" y1="179" x2="410" y2="178"/>
    <line x1="411" y1="186" x2="410" y2="187"/>
    <line x1="410" y1="187" x2="409" y2="186"/>
    <line x1="409" y1="186" x2="410" y2="185"/>
    <line x1="410" y1="185" x2="411" y2="186"/>
    <line x1="411" y1="186" x2="411" y2="188"/>
    <line x1="411" y1="188" x2="409" y2="190"/>
    </g>
  <g>
    <line x1="418" y1="178" x2="417" y2="179"/>
    <line x1="417" y1="179" x2="418" y2="180"/>
    <line x1="418" y1="180" x2="419" y2="179"/>
    <line x1="419" y1="179" x2="418" y2="178"/>
    <line x1="418" y1="185" x2="417" y2="186"/>
    <line x1="417" y1="186" x2="418" y2="187"/>
    <line x1="418" y1="187" x2="419" y2="186"/>
    <line x1="419" y1="186" x2="418" y2="185"/>
    </g>
  <g>
    <line x1="427" y1="171" x2="426" y2="170"/>
    <line x1="426" y1="170" x2="427" y2="169"/>
    <line x1="427" y1="169" x2="428" y2="170"/>
    <line x1="428" y1="170" x2="428" y2="172"/>
    <line x1="428" y1="172" x2="427" y2="174"/>
    <line x1="427" y1="174" x2="426" y2="175"/>
    </g>
  <g>
    <line x1="436" y1="169" x2="436" y2="176"/>
    <line x1="444" y1="169" x2="444" y2="176"/>
    </g>
  <g>
    <line x1="54" y1="209" x2="54" y2="230"/>
    <line x1="68" y1="209" x2="68" y2="230"/>
    <line x1="54" y1="219" x2="68" y2="219"/>
    </g>
  <g>
    <line x1="75" y1="222" x2="87" y2="222"/>
    <line x1="87" y1="222" x2="87" y2="220"/>
    <line x1="87" y1="220" x2="86" y2="218"/>
    <line x1="86" y1="218" x2="85" y2="217"/>
    <line x1="85" y1="217" x2="83" y2="216"/>
    <line x1="83" y1="216" x2="80" y2="216"/>
    <line x1="80" y1="216" x2="78" y2="217"/>
    <line x1="78" y1="217" x2="76" y2="219"/>
    <line x1="76" y1="219" x2="75" y2="222"/>
    <line x1="75" y1="222" x2="75" y2="224"/>
    <line x1="75" y1="224" x2="76" y2="227"/>
    <line x1="76" y1="227" x2="78" y2="229"/>
    <line x1="78" y1="229" x2="80" y2="230"/>
    <line x1="80" y1="230" x2="83" y2="230"/>
    <line x1="83" y1="230" x2="85" y2="229"/>
    <line x1="85" y1="229" x2="87" y2="227"/>
    </g>
  <g>
    <line x1="94" y1="209" x2="94" y2="230"/>
    </g>
  <g>
    <line x1="102" y1="209" x2="102" y2="230"/>
    </g>
  <g>
    <line x1="114" y1="216" x2="112" y2="217"/>
    <line x1="112" y1="217" x2="110" y2="219"/>
    <line x1="110" y1="219" x2="109" y2="222"/>
    <line x1="109" y1="222" x2="109" y2="224"/>
    <line x1="109" y1="224" x2="110" y2="227"/>
    <line x1="110" y1="227" x2="112" y2="229"/>
    <line x1="112" y1="229" x2="114" y2="230"/>
    <line x1="114" y1="230" x2="117" y2="230"/>
    <line x1="117" y1="230" x2="119" y2="229"/>
    <line x1="119" y1="229" x2="121" y2="227"/>
    <line x1="121" y1="227" x2="122" y2="224"/>
    <line x1="122" y1="224" x2="122" y2="222"/>
    <line x1="122" y1="222" x2="121" y2="219"/>
    <line x1="121" y1="219" x2="119" y2="217"/>
    <line x1="119" y1="217" x2="117" y2="216"/>
    <line x1="117" y1="216" x2="114" y2="216"/>
    </g>
  <g>
    <line x1="138" y1="209" x2="143" y2="230"/>
    <line x1="148" y1="209" x2="143" y2="230"/>
    <line x1="148" y1="209" x2="153" y2="230"/>
    <line x1="158" y1="209" x2="153" y2="230"/>
    </g>
  <g>
    <line x1="168" y1="216" x2="166" y2="217"/>
    <line x1="166" y1="217" x2="164" y2="219"/>
    <line x1="164" y1="219" x2="163" y2="222"/>
    <line x1="163" y1="222" x2="163" y2="224"/>
    <line x1="163" y1="224" x2="164" y2="227"/>
    <line x1="164" y1="227" x2="166" y2="229"/>
    <line x1="166" y1="229" x2="168" y2="230"/>
    <line x1="168" y1="230" x2="171" y2="230"/>
    <line x1="171" y1="230" x2="173" y2="229"/>
    <line x1="173" y1="229" x2="175" y2="227"/>
    <line x1="175" y1="227" x2="176" y2="224"/>
    <line x1="176" y1="224" x2="176" y2="222"/>
    <line x1="176" y1="222" x2="175" y2="219"/>
    <line x1="175" y1="219" x2="173" y2="217"/>
    <line x1="173" y1="217" x2="171" y2="216"/>
    <line x1="171" y1="216" x2="168" y2="216"/>
    </g>
  <g>
    <line x1="184" y1="216" x2="184" y2="230"/>
    <line x1="184" y1="222" x2="185" y2="219"/>
    <line x1="185" y1="219" x2="187" y2="217"/>
    <line x1="187" y1="217" x2="189" y2="216"/>
    <line x1="189" y1="216" x2="192" y2="216"/>
    </g>
  <g>
    <line x1="196" y1="209" x2="196" y2="230"/>
    </g>
  <g>
    <line x1="215" y1="209" x2="215" y2="230"/>
    <line x1="215" y1="219" x2="213" y2="217"/>
    <line x1="213" y1="217" x2="211" y2="216"/>
    <line x1="211" y1="216" x2="208" y2="216"/>
    <line x1="208" y1="216" x2="206" y2="217"/>
    <line x1="206" y1="217" x2="204" y2="219"/>
    <line x1="204" y1="219" x2="203" y2="222"/>
    <line x1="203" y1="222" x2="203" y2="224"/>
    <line x1="203" y1="224" x2="204" y2="227"/>
    <line x1="204" y1="227" x2="206" y2="229"/>
    <line x1="206" y1="229" x2="208" y2="230"/>
    <line x1="208" y1="230" x2="211" y2="230"/>
    <line x1="211" y1="230" x2="213" y2="229"/>
    <line x1="213" y1="229" x2="215" y2="227"/>
    </g>
</g>
</svg>