<!-- plotSvg_powerstroke.svg -->
<!-- Generated using p5.plotSvg v.0.1.5: -->
<!-- A Plotter-Oriented SVG Exporter for p5.js -->
<!-- Thu Jul 10 2025 23:45:23 GMT-0400 (Eastern Daylight Time) -->
<!-- DPI: 96 -->
<svg xmlns="http://www.w3.org/2000/svg" xmlns:inkscape="http://www.inkscape.org/namespaces/inkscape" version="1.1" inkscape:version="1.4 (e7c3feb1, 2024-10-09)" width="6.666666666666667in" height="7.5in" viewBox="0 0 640 720">
  <defs>
    <inkscape:path-effect id="pe-powerstroke-00000" effect="powerstroke" is_visible="true" lpeversion="1.3" scale_width="50" interpolator_type="Linear" start_linecap_type="zerowidth" end_linecap_type="zerowidth" linejoin_type="bevel" interpolator_beta="0.335" offset_points="0.00000,0.20000 | 1.00000,0.22059 | 2.00000,0.28022 | 3.00000,0.37277 | 4.00000,0.48871 | 5.00000,0.61611 | 6.00000,0.74184 | 7.00000,0.85298 | 8.00000,0.93808 | 9.00000,0.98838 | 10.00000,0.99870 | 11.00000,0.96799 | 12.00000,0.89940 | 13.00000,0.80000 | 14.00000,0.68001 | 15.00000,0.55179 | 16.00000,0.42852 | 17.00000,0.32291 | 18.00000,0.24582 | 19.00000,0.20518 | 20.00000,0.20518 | 21.00000,0.24582 | 22.00000,0.32291 | 23.00000,0.42852 | 24.00000,0.55179 | 25.00000,0.68001 | 26.00000,0.80000 | 27.00000,0.89940 | 28.00000,0.96799 | 29.00000,0.99870 | 30.00000,0.98838 | 31.00000,0.93808 | 32.00000,0.85298 | 33.00000,0.74184 | 34.00000,0.61611 | 35.00000,0.48871 | 36.00000,0.37277 | 37.00000,0.28022 | 38.00000,0.22059 | 39.00000,0.20000"/>
  </defs>
  <style>
      circle, ellipse, line, path, polygon, polyline, rect, quad, text {
        fill: none;
        stroke: black;
        stroke-width: 1;
        stroke-linecap: round;
        stroke-linejoin: round;
        vector-effect: non-scaling-stroke;
      }
    </style>
<g vector-effect="non-scaling-stroke">
  <g id="powerstroke-layer" inkscape:label="p5.PowerStroke Layer" inkscape:groupmode="layer">
    <path id="powerstroke-00000" style="fill:#000000; stroke:none; stroke-width:0; fill-opacity:0.2" inkscape:path-effect="#pe-powerstroke-00000" inkscape:original-d="M 50.00000,423.97128 63.84615,429.79804 77.69231,435.05443 91.53846,439.63985 105.38462,443.46653 119.23077,446.46121 133.07692,448.56658 146.92308,449.74233 160.76923,449.96597 174.61538,449.23321 188.46154,447.55808 202.30769,444.97264 216.15385,441.52638 230.00000,437.28526 243.84615,432.33047 257.69231,426.75684 271.53846,420.67105 285.38462,414.18960 299.23077,407.43655 313.07692,400.54116 326.92308,393.63541 340.76923,386.85148 354.61538,380.31923 368.46154,374.16369 382.30769,368.50268 396.15385,363.44456 410.00000,359.08614 423.84615,355.51086 437.69231,352.78715 451.53846,350.96713 465.38462,350.08566 479.23077,350.15959 493.07692,351.18752 506.92308,353.14976 520.76923,356.00877 534.61538,359.70981 548.46154,364.18205 562.30769,369.33988 576.15385,375.08457 590.00000,381.30617" d="M 46.1212,433.1884 L 48.8246,434.5505 L 51.5279,435.9126 L 54.2313,437.2748 L 56.9346,438.6369 L 59.9990,440.1516 L 62.6067,441.7920 L 65.2143,443.4323 L 67.8219,445.0726 L 70.4295,446.7129 L 73.6000,448.5816 L 76.1657,450.4406 L 78.7314,452.2997 L 81.2971,454.1587 L 83.8628,456.0177 L 87.3290,458.1833 L 89.9153,460.1625 L 92.5016,462.1417 L 95.0879,464.1208 L 97.6741,466.1000 L 101.6461,468.4026 L 104.3109,470.3683 L 106.9756,472.3339 L 109.6403,474.2996 L 112.3051,476.2652 L 116.9500,478.4322 L 119.7320,480.2264 L 122.5139,482.0207 L 125.2958,483.8149 L 130.5412,485.8281 L 133.4482,487.2870 L 136.3553,488.7459 L 139.2623,490.2047 L 142.1693,491.6636 L 148.0553,492.9775 L 151.0600,493.9541 L 154.0647,494.9307 L 157.0693,495.9073 L 163.3110,496.8123 L 166.3558,497.1997 L 169.4006,497.5871 L 172.4453,497.9745 L 175.4901,498.3620 L 181.8445,498.1862 L 184.8561,497.9344 L 187.8677,497.6827 L 190.8793,497.4310 L 193.8909,497.1792 L 199.9870,495.9325 L 202.8953,495.0545 L 205.8036,494.1765 L 208.7118,493.2985 L 214.4035,491.7280 L 217.1588,490.2943 L 219.9142,488.8605 L 222.6695,487.4267 L 225.4248,485.9929 L 230.4167,483.7319 L 233.0007,481.8563 L 235.5848,479.9808 L 238.1688,478.1052 L 240.7528,476.2296 L 245.0012,473.5797 L 247.4296,471.4021 L 249.8579,469.2246 L 252.2863,467.0470 L 254.7146,464.8695 L 258.2996,462.1039 L 260.6168,459.7728 L 262.9339,457.4416 L 265.2511,455.1105 L 267.5683,452.7794 L 270.6455,450.1033 L 272.9151,447.7615 L 275.1847,445.4196 L 277.4543,443.0778 L 279.7238,440.7360 L 282.4746,438.2787 L 284.7676,436.0536 L 287.0605,433.8285 L 289.3535,431.6033 L 291.6464,429.3782 L 294.2393,427.2075 L 296.6224,425.2045 L 299.0056,423.2014 L 301.3887,421.1983 L 303.7719,419.1953 L 306.3387,417.3418 L 308.8652,415.6404 L 311.3917,413.9390 L 313.9182,412.2376 L 316.4447,410.5362 L 319.0688,409.0169 L 321.7713,407.6690 L 324.4739,406.3211 L 327.1765,404.9732 L 329.8790,403.6253 L 332.5903,402.4600 L 335.4774,401.4886 L 338.3645,400.5173 L 341.2517,399.5459 L 344.1388,398.5745 L 346.9120,397.7907 L 349.9677,397.1898 L 353.0235,396.5890 L 356.0793,395.9881 L 359.1351,395.3872 L 361.8903,395.0129 L 365.0775,394.7478 L 368.2646,394.4827 L 371.4518,394.2176 L 374.6390,393.9524 L 377.2471,393.9981 L 380.5134,394.0069 L 383.7798,394.0157 L 387.0461,394.0246 L 390.3124,394.0334 L 392.6098,394.4671 L 395.8972,394.6646 L 399.1846,394.8621 L 402.4720,395.0595 L 405.7593,395.2570 L 407.5769,395.9822 L 410.8324,396.2660 L 414.0878,396.5498 L 417.3433,396.8337 L 420.5988,397.1175 L 421.8057,397.9638 L 424.9923,398.2251 L 428.1789,398.4863 L 431.3654,398.7476 L 434.5520,399.0089 L 435.1073,399.7495 L 438.2122,399.8868 L 441.3171,400.0240 L 444.4221,400.1612 L 444.4821,400.7637 L 447.5197,400.6994 L 450.5573,400.6350 L 453.5948,400.5707 L 456.6324,400.5064 L 456.3183,400.6389 L 459.3251,400.3348 L 462.3319,400.0308 L 465.3387,399.7268 L 468.3455,399.4227 L 467.9638,399.0030 L 470.9867,398.4706 L 474.0097,397.9382 L 477.0326,397.4058 L 476.8538,396.6859 L 479.9341,395.9865 L 483.0144,395.2872 L 486.0946,394.5878 L 489.1749,393.8884 L 489.4877,392.8348 L 492.6463,392.0705 L 495.8048,391.3061 L 498.9634,390.5417 L 499.8349,389.3856 L 503.0641,388.6811 L 506.2933,387.9767 L 509.5225,387.2722 L 512.7517,386.5678 L 514.2710,385.5386 L 517.5352,385.0218 L 520.7994,384.5050 L 524.0636,383.9882 L 527.3278,383.4714 L 529.3772,382.8108 L 532.6208,382.5941 L 535.8645,382.3774 L 539.1082,382.1607 L 542.3518,381.9440 L 544.7443,381.7964 L 547.9045,381.9643 L 551.0648,382.1322 L 554.2250,382.3001 L 557.3852,382.4680 L 559.9279,382.8778 L 562.9476,383.4803 L 565.9673,384.0828 L 568.9870,384.6852 L 571.7081,385.1726 L 574.5468,386.2236 L 577.3854,387.2746 L 580.2241,388.3256 L 583.0627,389.3766 L 585.9014,390.4276 L 594.0986,372.1847 L 591.4278,370.7601 L 588.7570,369.3355 L 586.0862,367.9109 L 583.4155,366.4863 L 580.7447,365.0618 L 577.8886,363.2302 L 575.3293,361.5180 L 572.7701,359.8058 L 570.2108,358.0935 L 567.1737,356.1908 L 564.6739,354.2502 L 562.1740,352.3096 L 559.6741,350.3691 L 557.1742,348.4285 L 553.8963,346.2021 L 551.3922,344.1289 L 548.8882,342.0557 L 546.3841,339.9826 L 543.8801,337.9094 L 540.1555,335.4811 L 537.5845,333.4046 L 535.0135,331.3280 L 532.4425,329.2515 L 529.8715,327.1750 L 525.5112,324.7734 L 522.8251,322.8476 L 520.1391,320.9217 L 517.4530,318.9958 L 514.7669,317.0700 L 509.6663,315.0186 L 506.8446,313.4067 L 504.0228,311.7948 L 501.2010,310.1829 L 495.5231,308.3785 L 492.5799,307.2320 L 489.6366,306.0854 L 486.6934,304.9389 L 483.7502,303.7923 L 477.5373,302.8926 L 474.5202,302.3280 L 471.5031,301.7633 L 468.4860,301.1986 L 462.0651,300.7714 L 459.0440,300.8511 L 456.0230,300.9308 L 453.0019,301.0105 L 449.9808,301.0903 L 443.6571,301.7943 L 440.7061,302.5171 L 437.7551,303.2400 L 434.8041,303.9628 L 431.8531,304.6856 L 425.9768,306.3939 L 423.1552,307.6969 L 420.3336,308.9999 L 417.5120,310.3030 L 412.1541,312.2675 L 409.4924,314.0389 L 406.8307,315.8103 L 404.1690,317.5816 L 401.5073,319.3530 L 396.9036,321.8410 L 394.3977,323.9383 L 391.8918,326.0357 L 389.3859,328.1331 L 386.8799,330.2304 L 382.9913,332.9315 L 380.6053,335.2015 L 378.2193,337.4715 L 375.8333,339.7415 L 373.4473,342.0115 L 370.1329,344.6769 L 367.8084,346.9715 L 365.4839,349.2662 L 363.1593,351.5608 L 360.8348,353.8555 L 357.9089,356.3200 L 355.5768,358.5086 L 353.2447,360.6971 L 350.9126,362.8857 L 348.5805,365.0742 L 345.8604,367.2494 L 343.4535,369.2256 L 341.0466,371.2019 L 338.6397,373.1782 L 336.2328,375.1544 L 333.5706,377.0045 L 331.0336,378.6907 L 328.4967,380.3768 L 325.9598,382.0630 L 323.4229,383.7491 L 320.7215,385.2643 L 318.0189,386.6122 L 315.3164,387.9601 L 312.6138,389.3080 L 309.9113,390.6559 L 307.1294,391.8308 L 304.2492,392.8220 L 301.3690,393.8131 L 298.4888,394.8043 L 295.6086,395.7955 L 292.7608,396.6186 L 289.7151,397.2633 L 286.6695,397.9080 L 283.6238,398.5526 L 280.5781,399.1973 L 277.7316,399.6522 L 274.5541,399.9878 L 271.3767,400.3234 L 268.1992,400.6590 L 265.0218,400.9946 L 262.2908,401.0730 L 259.0309,401.1616 L 255.7709,401.2501 L 252.5110,401.3387 L 249.2510,401.4273 L 246.7851,401.1494 L 243.4992,401.0738 L 240.2132,400.9981 L 236.9272,400.9225 L 233.6412,400.8468 L 231.6028,400.2834 L 228.3442,400.1409 L 225.0856,399.9984 L 221.8270,399.8559 L 218.5685,399.7134 L 217.0970,398.9995 L 213.9058,398.8929 L 210.7147,398.7863 L 207.5235,398.6797 L 204.3323,398.5731 L 203.4993,397.9020 L 200.3933,397.9271 L 197.2874,397.9522 L 194.1814,397.9772 L 191.0755,398.0023 L 190.8409,397.5921 L 187.8118,397.8228 L 184.7826,398.0535 L 181.7535,398.2842 L 181.9009,398.0738 L 178.9162,398.5475 L 175.9314,399.0212 L 172.9467,399.4949 L 169.9619,399.9686 L 170.2998,400.2865 L 167.3129,400.9932 L 164.3261,401.6998 L 161.3392,402.4064 L 158.3523,403.1131 L 158.5549,403.9291 L 155.5203,404.8082 L 152.4857,405.6872 L 149.4510,406.5662 L 149.3060,407.6197 L 146.1946,408.5676 L 143.0832,409.5154 L 139.9718,410.4632 L 136.8604,411.4110 L 136.1246,412.5985 L 132.9351,413.4847 L 129.7456,414.3710 L 126.5561,415.2573 L 125.2401,416.4590 L 122.0013,417.1478 L 118.7624,417.8366 L 115.5236,418.5254 L 112.2847,419.2142 L 110.3911,420.0857 L 107.1556,420.4559 L 103.9200,420.8261 L 100.6844,421.1963 L 97.4489,421.5665 L 95.1556,421.9180 L 91.9874,421.8781 L 88.8193,421.8382 L 85.6511,421.7984 L 82.4830,421.7585 L 79.9960,421.5134 L 76.9568,421.0100 L 73.9176,420.5066 L 70.8783,420.0032 L 67.8391,419.4998 L 65.3342,418.6769 L 62.4704,417.6962 L 59.6065,416.7155 L 56.7426,415.7348 L 53.8788,414.7542 Z"/>
    </g>
</g>
</svg>