<!-- plotSvg_hello_animating.svg -->
<!-- Generated using p5.plotSvg: -->
<!-- A Plotter-Oriented SVG Exporter for p5.js -->
<!-- Sat Dec 07 2024 07:09:24 GMT-0500 (Eastern Standard Time) -->
<!-- DPI: 96 -->
<svg xmlns="http://www.w3.org/2000/svg" width="6in" height="4in" viewBox="0 0 576 384">
  <style>
      circle, ellipse, line, path, polygon, polyline, rect, quad, text {
        fill: none;
        stroke: black;
        stroke-width: 1;
        stroke-linecap: round;
        stroke-linejoin: round;
        vector-effect: non-scaling-stroke;
      }
    </style>
<g vector-effect="non-scaling-stroke">
  <g>
    <g transform="translate(288, 192)">
      <polyline points="-200,6.1614 -199,7.2433 -198,8.2106 -197,9.0235 -196,9.6427 -195,10.0484 -194,10.3134 -193,10.4647 -192,10.5091 -191,10.4605 -190,10.3384 -189,10.1668 -188,9.9719 -187,9.7807 -186,9.6186 -185,9.5080 -184,9.4664 -183,9.5055 -182,9.6668 -181,10.0200 -180,10.5518 -179,11.2366 -178,12.0398 -177,12.9207 -176,13.8344 -175,14.7357 -174,15.5814 -173,16.3338 -172,16.9630 -171,17.4492 -170,17.7780 -169,17.8604 -168,17.6881 -167,17.3041 -166,16.7678 -165,16.1525 -164,15.5401 -163,15.0169 -162,14.6675 -161,14.5702 -160,14.7916 -159,15.3825 -158,16.3747 -157,17.7067 -156,19.2432 -155,20.9289 -154,22.7462 -153,24.6540 -152,26.6040 -151,28.5440 -150,30.4202 -149,32.1811 -148,33.7799 -147,35.1775 -146,36.3445 -145,37.2781 -144,38.1788 -143,39.1059 -142,40.0466 -141,40.9834 -140,41.8951 -139,42.7583 -138,43.5483 -137,44.2407 -136,44.8132 -135,45.2463 -134,45.5251 -133,45.6395 -132,45.6275 -131,45.5691 -130,45.4644 -129,45.3101 -128,45.1022 -127,44.8359 -126,44.5065 -125,44.1098 -124,43.6424 -123,43.1028 -122,42.4913 -121,41.8104 -120,41.0649 -119,40.2554 -118,39.3905 -117,38.4835 -116,37.5503 -115,36.6083 -114,35.6761 -113,34.7720 -112,33.9138 -111,33.1174 -110,32.3965 -109,31.7614 -108,31.2188 -107,30.7296 -106,30.2137 -105,29.6699 -104,29.1003 -103,28.5072 -102,27.8936 -101,27.2630 -100,26.6185 -99,25.9633 -98,25.3002 -97,24.6310 -96,23.9570 -95,23.2668 -94,22.3977 -93,21.3067 -92,20.0166 -91,18.5611 -90,16.9827 -89,15.3305 -88,13.6567 -87,12.0135 -86,10.4496 -85,9.0076 -84,7.7206 -83,6.6110 -82,5.6805 -81,4.9095 -80,4.2787 -79,3.7558 -78,3.2968 -77,2.8492 -76,2.3554 -75,1.7565 -74,0.9959 -73,0.0235 -72,-1.2010 -71,-2.7058 -70,-4.4997 -69,-6.5155 -68,-8.7418 -67,-11.1117 -66,-13.6152 -65,-16.2143 -64,-18.8667 -63,-21.5273 -62,-24.1514 -61,-26.6968 -60,-29.1263 -59,-31.4094 -58,-33.5242 -57,-35.4111 -56,-36.9815 -55,-38.2469 -54,-39.2337 -53,-39.9799 -52,-40.5324 -51,-40.9438 -50,-41.2694 -49,-41.5635 -48,-41.8764 -47,-42.2509 -46,-42.7205 -45,-43.3025 -44,-43.9500 -43,-44.6454 -42,-45.3812 -41,-46.1426 -40,-46.9091 -39,-47.6560 -38,-48.3560 -37,-48.9814 -36,-49.5061 -35,-49.9072 -34,-50.1666 -33,-50.2726 -32,-50.2123 -31,-49.9736 -30,-49.5671 -29,-49.0114 -28,-48.3311 -27,-47.5558 -26,-46.7179 -25,-45.8508 -24,-44.9865 -23,-44.1538 -22,-43.3764 -21,-42.6716 -20,-42.0440 -19,-41.4302 -18,-40.8078 -17,-40.1723 -16,-39.5171 -15,-38.8339 -14,-38.1138 -13,-37.3473 -12,-36.5257 -11,-35.6413 -10,-34.6884 -9,-33.6636 -8,-32.5667 -7,-31.5030 -6,-30.6635 -5,-30.0409 -4,-29.6120 -3,-29.3439 -2,-29.1960 -1,-29.1232 0,-29.0784 1,-29.0162 2,-28.8950 3,-28.6808 4,-28.3485 5,-27.8851 6,-27.3040 7,-26.6184 8,-25.8472 9,-25.0180 10,-24.1657 11,-23.3302 12,-22.5539 13,-21.8789 14,-21.3446 15,-20.9851 16,-20.8266 17,-20.8867 18,-21.1588 19,-21.6140 20,-22.2361 21,-22.9989 22,-23.8674 23,-24.8003 24,-25.7522 25,-26.6771 26,-27.5314 27,-28.2769 28,-28.8829 29,-29.3292 30,-29.6128 31,-29.7801 32,-29.8618 33,-29.8784 34,-29.8569 35,-29.8293 36,-29.8311 37,-29.8987 38,-30.0677 39,-30.3705 40,-30.8343 41,-31.4794 42,-32.3176 43,-33.3268 44,-34.4572 45,-35.7001 46,-37.0447 47,-38.4772 48,-39.9816 49,-41.5399 50,-43.1330 51,-44.7410 52,-46.3439 53,-47.9222 54,-49.4573 55,-50.9448 56,-52.5243 57,-54.2183 58,-55.9913 59,-57.7988 60,-59.5893 61,-61.3067 62,-62.8934 63,-64.2937 64,-65.4563 65,-66.3373 66,-66.9031 67,-67.1315 68,-66.9893 69,-66.4394 70,-65.5058 71,-64.2301 72,-62.6685 73,-60.8889 74,-58.9663 75,-56.9795 76,-55.0061 77,-53.1186 78,-51.3806 79,-49.8433 80,-48.5285 81,-47.2715 82,-46.0338 83,-44.8323 84,-43.6830 85,-42.6009 86,-41.5995 87,-40.6909 88,-39.8855 89,-39.1921 90,-38.6175 91,-38.1666 92,-37.8426 93,-37.7022 94,-37.8407 95,-38.2435 96,-38.8824 97,-39.7197 98,-40.7098 99,-41.8017 100,-42.9420 101,-44.0773 102,-45.1572 103,-46.1367 104,-46.9783 105,-47.6556 106,-48.1750 107,-48.5344 108,-48.7322 109,-48.7745 110,-48.6736 111,-48.4468 112,-48.1146 113,-47.6988 114,-47.2208 115,-46.6996 116,-46.1505 117,-45.5840 118,-44.9813 119,-44.3015 120,-43.5445 121,-42.7111 122,-41.8023 123,-40.8201 124,-39.7561 125,-38.6352 126,-37.4526 127,-36.2151 128,-34.9316 129,-33.6130 130,-32.2651 131,-30.8229 132,-29.2850 133,-27.6816 134,-26.0496 135,-24.4307 136,-22.8699 137,-21.4127 138,-20.1032 139,-18.9814 140,-18.0814 141,-17.4294 142,-17.0421 143,-16.8400 144,-16.6734 145,-16.5392 146,-16.4365 147,-16.3645 148,-16.3220 149,-16.3076 150,-16.3198 151,-16.3565 152,-16.4157 153,-16.4947 154,-16.5909 155,-16.7012 156,-16.8245 157,-16.9578 158,-17.0970 159,-17.2379 160,-17.3761 161,-17.5072 162,-17.6270 163,-17.7318 164,-17.8180 165,-17.8829 166,-17.9243 167,-17.9408 168,-17.9517 169,-17.9906 170,-18.0561 171,-18.1447 172,-18.2529 173,-18.3726 174,-18.4988 175,-18.6247 176,-18.7442 177,-18.8513 178,-18.9409 179,-19.0090 180,-19.0541 181,-19.0857 182,-19.1063 183,-19.1158 184,-19.1147 185,-19.1039 186,-19.0845 187,-19.0580 188,-19.0259 189,-18.9899 190,-18.9516 191,-18.9122 192,-18.8729 193,-18.9637 194,-19.3939 195,-20.1414 196,-21.1633 197,-22.4015 198,-23.7868 199,-25.2430 200,-26.6913"/>
      <rect x="-200" y="-150" width="400" height="300"/>
    </g>
  </g>
</g>
</svg>