<!-- plotSvg_hatched_shapes_000.svg -->
<!-- Generated using p5.plotSvg v.0.1.7: -->
<!-- A Plotter-Oriented SVG Exporter for p5.js -->
<!-- Wed Dec 24 2025 01:33:43 GMT-0500 (Eastern Standard Time) -->
<!-- DPI: 96 -->
<svg xmlns="http://www.w3.org/2000/svg" version="1.1" width="6in" height="4in" viewBox="0 0 576 384">
  <style>
      circle, ellipse, line, path, polygon, polyline, rect, quad, text {
        fill: none;
        stroke: black;
        stroke-width: 1;
        stroke-linecap: round;
        stroke-linejoin: round;
        vector-effect: non-scaling-stroke;
      }
    </style>
<polygon points="488.8212,225.3652 416.3297,283.0777 361.9179,306.3116 309.9017,274.9819 280.4853,225.3652 274.2092,170.9266 361.9179,169.8625 430.9693,160.2970"/>
<polygon points="496.9487,121.8882 474.4770,176.7544 404.6808,203.8124 351.2608,180.1860 329.4623,121.8882 344.0832,80.8940 404.6808,70.3662 462.6925,57.8092"/>
<polygon points="306.2005,215.1157 245.5871,278.1018 166.6373,258.5678 60.9924,233.4445 93.8989,173.8185 165.9354,148.1906 255.6961,164.1297"/>
<g id="hatchlines-for-shape-0">
  <line x1="275.3092" y1="173.0015" x2="289.0728" y2="170.4396"/>
  <line x1="275.8581" y1="175.9509" x2="306.3347" y2="170.2781"/>
  <line x1="276.4071" y1="178.9002" x2="324.5797" y2="169.9336"/>
  <line x1="275.9730" y1="182.0325" x2="341.8416" y2="169.7721"/>
  <line x1="276.5219" y1="184.9819" x2="359.1036" y2="169.6106"/>
  <line x1="277.0709" y1="187.9312" x2="419.6225" y2="161.3976"/>
  <line x1="277.6199" y1="190.8806" x2="431.9689" y2="162.1510"/>
  <line x1="278.1689" y1="193.8299" x2="434.4841" y2="164.7344"/>
  <line x1="277.7347" y1="196.9622" x2="436.0162" y2="167.5007"/>
  <line x1="278.2837" y1="199.9116" x2="438.5314" y2="170.0841"/>
  <line x1="278.8327" y1="202.8609" x2="441.0466" y2="172.6674"/>
  <line x1="279.3816" y1="205.8103" x2="443.5618" y2="175.2508"/>
  <line x1="279.9306" y1="208.7596" x2="446.0770" y2="177.8342"/>
  <line x1="279.4965" y1="211.8920" x2="448.5922" y2="180.4175"/>
  <line x1="280.0454" y1="214.8413" x2="450.1243" y2="183.1839"/>
  <line x1="280.5944" y1="217.7906" x2="452.6395" y2="185.7672"/>
  <line x1="281.1434" y1="220.7400" x2="455.1547" y2="188.3506"/>
  <line x1="281.6923" y1="223.6893" x2="457.6699" y2="190.9340"/>
  <line x1="282.2413" y1="226.6387" x2="460.1851" y2="193.5173"/>
  <line x1="283.7734" y1="229.4050" x2="461.7172" y2="196.2837"/>
  <line x1="285.3055" y1="232.1714" x2="464.2324" y2="198.8671"/>
  <line x1="287.8207" y1="234.7547" x2="466.7476" y2="201.4504"/>
  <line x1="289.3528" y1="237.5211" x2="469.2628" y2="204.0338"/>
  <line x1="290.8849" y1="240.2874" x2="471.7780" y2="206.6171"/>
  <line x1="292.4170" y1="243.0538" x2="473.3100" y2="209.3835"/>
  <line x1="293.9490" y1="245.8202" x2="475.8253" y2="211.9669"/>
  <line x1="295.4811" y1="248.5865" x2="478.3405" y2="214.5502"/>
  <line x1="297.0132" y1="251.3529" x2="480.8557" y2="217.1336"/>
  <line x1="298.5453" y1="254.1192" x2="483.3709" y2="219.7169"/>
  <line x1="300.0774" y1="256.8856" x2="485.8861" y2="222.3003"/>
  <line x1="301.6095" y1="259.6519" x2="487.4181" y2="225.0667"/>
  <line x1="304.1247" y1="262.2353" x2="483.0515" y2="228.9310"/>
  <line x1="305.6568" y1="265.0016" x2="477.7018" y2="232.9782"/>
  <line x1="307.1889" y1="267.7680" x2="472.3521" y2="237.0255"/>
  <line x1="308.7209" y1="270.5343" x2="467.9855" y2="240.8898"/>
  <line x1="310.2530" y1="273.3007" x2="462.6358" y2="244.9371"/>
  <line x1="313.7513" y1="275.7011" x2="457.2861" y2="248.9844"/>
  <line x1="317.2497" y1="278.1014" x2="452.9195" y2="252.8487"/>
  <line x1="320.7480" y1="280.5018" x2="447.5698" y2="256.8960"/>
  <line x1="325.2294" y1="282.7192" x2="443.2032" y2="260.7603"/>
  <line x1="328.7277" y1="285.1196" x2="437.8535" y2="264.8076"/>
  <line x1="332.2260" y1="287.5199" x2="432.5037" y2="268.8549"/>
  <line x1="336.7075" y1="289.7373" x2="428.1371" y2="272.7192"/>
  <line x1="340.2058" y1="292.1377" x2="422.7874" y2="276.7665"/>
  <line x1="343.7041" y1="294.5381" x2="417.4377" y2="280.8137"/>
  <line x1="348.1855" y1="296.7554" x2="409.1386" y2="285.4100"/>
  <line x1="351.6839" y1="299.1558" x2="396.9071" y2="290.7382"/>
  <line x1="356.1653" y1="301.3732" x2="383.6925" y2="296.2494"/>
  <line x1="359.6636" y1="303.7736" x2="371.4610" y2="301.5777"/>
  </g>
<g id="hatchlines-for-shape-1">
  <line x1="330.9526" y1="124.4495" x2="346.2744" y2="81.0762"/>
  <line x1="332.4490" y1="129.2203" x2="349.7693" y2="80.1896"/>
  <line x1="333.9453" y1="133.9911" x2="352.9310" y2="80.2460"/>
  <line x1="335.7748" y1="137.8191" x2="356.4259" y2="79.3594"/>
  <line x1="337.2711" y1="142.5899" x2="359.9208" y2="78.4729"/>
  <line x1="339.1006" y1="146.4179" x2="363.0825" y2="78.5292"/>
  <line x1="340.5969" y1="151.1887" x2="366.5774" y2="77.6427"/>
  <line x1="342.4264" y1="155.0166" x2="370.0722" y2="76.7561"/>
  <line x1="343.9227" y1="159.7875" x2="373.2340" y2="76.8125"/>
  <line x1="345.4191" y1="164.5583" x2="376.7289" y2="75.9259"/>
  <line x1="347.2486" y1="168.3863" x2="380.2237" y2="75.0394"/>
  <line x1="348.7449" y1="173.1571" x2="383.3855" y2="75.0957"/>
  <line x1="350.5744" y1="176.9850" x2="386.8804" y2="74.2092"/>
  <line x1="352.7369" y1="179.8701" x2="390.3752" y2="73.3227"/>
  <line x1="355.5656" y1="180.8693" x2="393.8701" y2="72.4361"/>
  <line x1="358.3943" y1="181.8686" x2="397.0319" y2="72.4925"/>
  <line x1="360.8899" y1="183.8107" x2="400.5267" y2="71.6059"/>
  <line x1="363.7186" y1="184.8100" x2="404.0216" y2="70.7194"/>
  <line x1="366.5473" y1="185.8092" x2="407.1834" y2="70.7757"/>
  <line x1="369.3760" y1="186.8085" x2="410.6782" y2="69.8892"/>
  <line x1="371.8716" y1="188.7506" x2="414.1731" y2="69.0026"/>
  <line x1="374.7003" y1="189.7499" x2="417.6679" y2="68.1161"/>
  <line x1="377.5290" y1="190.7491" x2="421.1628" y2="67.2295"/>
  <line x1="380.3577" y1="191.7484" x2="424.6576" y2="66.3430"/>
  <line x1="383.1863" y1="192.7476" x2="428.1525" y2="65.4564"/>
  <line x1="385.6820" y1="194.6898" x2="431.3143" y2="65.5128"/>
  <line x1="388.5107" y1="195.6890" x2="434.8091" y2="64.6262"/>
  <line x1="391.3393" y1="196.6882" x2="438.3040" y2="63.7397"/>
  <line x1="394.1680" y1="197.6875" x2="441.7989" y2="62.8531"/>
  <line x1="396.6636" y1="199.6296" x2="445.2937" y2="61.9666"/>
  <line x1="399.4923" y1="200.6289" x2="448.7886" y2="61.0800"/>
  <line x1="402.3210" y1="201.6281" x2="451.9503" y2="61.1364"/>
  <line x1="405.1497" y1="202.6274" x2="455.4452" y2="60.2498"/>
  <line x1="408.9777" y1="200.7979" x2="458.9401" y2="59.3633"/>
  <line x1="412.4725" y1="199.9114" x2="462.1018" y2="59.4196"/>
  <line x1="416.3005" y1="198.0819" x2="464.2644" y2="62.3047"/>
  <line x1="419.7953" y1="197.1954" x2="466.0938" y2="66.1326"/>
  <line x1="423.6233" y1="195.3660" x2="467.9233" y2="69.9606"/>
  <line x1="427.4512" y1="193.5365" x2="469.7527" y2="73.7885"/>
  <line x1="430.9461" y1="192.6500" x2="471.9152" y2="76.6736"/>
  <line x1="434.7740" y1="190.8205" x2="473.7447" y2="80.5015"/>
  <line x1="438.2689" y1="189.9340" x2="475.5741" y2="84.3294"/>
  <line x1="442.0968" y1="188.1045" x2="477.4036" y2="88.1574"/>
  <line x1="445.5917" y1="187.2180" x2="479.5661" y2="91.0424"/>
  <line x1="449.4196" y1="185.3885" x2="481.3955" y2="94.8704"/>
  <line x1="453.2475" y1="183.5591" x2="483.2250" y2="98.6983"/>
  <line x1="456.7424" y1="182.6725" x2="485.0544" y2="102.5262"/>
  <line x1="460.5703" y1="180.8431" x2="487.2170" y2="105.4113"/>
  <line x1="464.0652" y1="179.9565" x2="489.0464" y2="109.2392"/>
  <line x1="467.8931" y1="178.1271" x2="490.8758" y2="113.0672"/>
  <line x1="471.7211" y1="176.2977" x2="492.7053" y2="116.8951"/>
  <line x1="479.8791" y1="162.2105" x2="494.8678" y2="119.7802"/>
  </g>
<g id="hatchlines-for-shape-2">
  <line x1="63.4348" y1="234.0770" x2="62.1347" y2="232.5571"/>
  <line x1="68.3146" y1="235.1665" x2="63.7644" y2="229.8471"/>
  <line x1="73.1945" y1="236.2560" x2="65.3941" y2="227.1371"/>
  <line x1="78.0743" y1="237.3456" x2="67.0238" y2="224.4271"/>
  <line x1="82.9542" y1="238.4351" x2="68.6535" y2="221.7171"/>
  <line x1="87.8340" y1="239.5246" x2="70.2832" y2="219.0071"/>
  <line x1="92.7139" y1="240.6141" x2="71.2628" y2="215.5372"/>
  <line x1="97.5937" y1="241.7037" x2="72.8925" y2="212.8272"/>
  <line x1="103.1236" y1="243.5531" x2="74.5222" y2="210.1172"/>
  <line x1="108.0035" y1="244.6426" x2="76.1519" y2="207.4072"/>
  <line x1="112.8833" y1="245.7322" x2="77.7816" y2="204.6972"/>
  <line x1="117.7632" y1="246.8217" x2="79.4113" y2="201.9872"/>
  <line x1="122.6430" y1="247.9112" x2="81.0410" y2="199.2772"/>
  <line x1="127.5229" y1="249.0008" x2="82.6707" y2="196.5672"/>
  <line x1="132.4027" y1="250.0903" x2="83.6503" y2="193.0973"/>
  <line x1="137.2826" y1="251.1798" x2="85.2800" y2="190.3873"/>
  <line x1="142.8124" y1="253.0293" x2="86.9097" y2="187.6773"/>
  <line x1="147.6923" y1="254.1188" x2="88.5394" y2="184.9673"/>
  <line x1="152.5721" y1="255.2083" x2="90.1691" y2="182.2573"/>
  <line x1="157.4520" y1="256.2979" x2="91.7988" y2="179.5473"/>
  <line x1="162.3318" y1="257.3874" x2="93.4284" y2="176.8373"/>
  <line x1="167.2117" y1="258.4769" x2="95.0581" y2="174.1273"/>
  <line x1="172.0915" y1="259.5665" x2="98.6379" y2="173.6970"/>
  <line x1="177.6214" y1="261.4159" x2="101.5677" y2="172.5068"/>
  <line x1="182.5013" y1="262.5054" x2="104.4974" y2="171.3166"/>
  <line x1="187.3811" y1="263.5950" x2="107.4272" y2="170.1264"/>
  <line x1="192.2610" y1="264.6845" x2="110.3569" y2="168.9362"/>
  <line x1="197.1408" y1="265.7740" x2="113.2867" y2="167.7460"/>
  <line x1="202.6707" y1="267.6235" x2="116.8665" y2="167.3158"/>
  <line x1="207.5505" y1="268.7130" x2="119.7962" y2="166.1256"/>
  <line x1="212.4304" y1="269.8025" x2="122.7260" y2="164.9354"/>
  <line x1="217.3102" y1="270.8921" x2="125.6557" y2="163.7452"/>
  <line x1="222.1901" y1="271.9816" x2="128.5855" y2="162.5550"/>
  <line x1="227.7200" y1="273.8310" x2="131.5152" y2="161.3648"/>
  <line x1="232.5998" y1="274.9206" x2="134.4450" y2="160.1746"/>
  <line x1="237.4797" y1="276.0101" x2="138.0248" y2="159.7443"/>
  <line x1="242.3595" y1="277.0996" x2="140.9545" y2="158.5542"/>
  <line x1="245.9393" y1="276.6693" x2="143.8843" y2="157.3640"/>
  <line x1="247.5690" y1="273.9593" x2="146.8140" y2="156.1738"/>
  <line x1="249.8487" y1="272.0092" x2="149.7438" y2="154.9836"/>
  <line x1="252.1284" y1="270.0591" x2="152.6735" y2="153.7934"/>
  <line x1="254.4081" y1="268.1090" x2="155.6033" y2="152.6032"/>
  <line x1="256.0378" y1="265.3990" x2="159.1831" y2="152.1729"/>
  <line x1="258.3175" y1="263.4489" x2="162.1128" y2="150.9827"/>
  <line x1="260.5973" y1="261.4989" x2="165.0426" y2="149.7925"/>
  <line x1="262.2270" y1="258.7888" x2="168.6223" y2="149.3623"/>
  <line x1="264.5067" y1="256.8388" x2="173.5022" y2="150.4518"/>
  <line x1="266.7864" y1="254.8887" x2="178.3820" y2="151.5413"/>
  <line x1="268.4161" y1="252.1787" x2="182.6119" y2="151.8710"/>
  <line x1="270.6958" y1="250.2286" x2="187.4917" y2="152.9605"/>
  <line x1="272.9755" y1="248.2785" x2="192.3716" y2="154.0500"/>
  <line x1="275.2552" y1="246.3284" x2="196.6014" y2="154.3796"/>
  <line x1="276.8849" y1="243.6184" x2="201.4812" y2="155.4692"/>
  <line x1="279.1647" y1="241.6683" x2="206.3611" y2="156.5587"/>
  <line x1="281.4444" y1="239.7182" x2="210.5909" y2="156.8883"/>
  <line x1="283.0741" y1="237.0082" x2="215.4707" y2="157.9779"/>
  <line x1="285.3538" y1="235.0581" x2="220.3506" y2="159.0674"/>
  <line x1="287.6335" y1="233.1080" x2="224.5804" y2="159.3970"/>
  <line x1="289.9132" y1="231.1579" x2="229.4603" y2="160.4865"/>
  <line x1="291.5429" y1="228.4479" x2="234.3401" y2="161.5761"/>
  <line x1="293.8226" y1="226.4978" x2="238.5699" y2="161.9057"/>
  <line x1="296.1024" y1="224.5477" x2="243.4498" y2="162.9952"/>
  <line x1="297.7320" y1="221.8377" x2="248.3296" y2="164.0848"/>
  <line x1="300.0118" y1="219.8876" x2="252.5594" y2="164.4144"/>
  <line x1="302.2915" y1="217.9375" x2="265.2397" y2="174.6228"/>
  <line x1="304.5712" y1="215.9874" x2="294.1707" y2="203.8289"/>
  </g>
</svg>