<!-- plotSvg_hatched_shapes.svg -->
<!-- Generated using p5.plotSvg: -->
<!-- A Plotter-Oriented SVG Exporter for p5.js -->
<!-- Sun Dec 08 2024 07:32:44 GMT-0500 (Eastern Standard Time) -->
<!-- DPI: 96 -->
<svg xmlns="http://www.w3.org/2000/svg" width="6in" height="4in" viewBox="0 0 576 384">
  <style>
      circle, ellipse, line, path, polygon, polyline, rect, quad, text {
        fill: none;
        stroke: black;
        stroke-width: 1;
        stroke-linecap: round;
        stroke-linejoin: round;
        vector-effect: non-scaling-stroke;
      }
    </style>
<g vector-effect="non-scaling-stroke">
  <polygon points="326.0322,127.3305 250.4101,172.1119 202.7957,179.0626 141.5266,161.8273 64.9635,127.3305 104.9029,59.7650 202.7957,71.3715 298.8224,92.7605"/>
  <polygon points="375.7125,191.1922 312.6823,265.4685 209.8759,217.8923 225.7080,152.1781 305.3568,140.5147"/>
  <polygon points="424.1475,276.9721 367.8641,346.5474 306.5158,367.6084 221.1073,309.2762 276.5053,236.3327 298.6327,185.5680 392.1980,217.3967"/>
  <line x1="101.5286" y1="64.8095" x2="105.2941" y2="60.1382"/>
  <line x1="90.6852" y1="83.0419" x2="108.8849" y2="60.4638"/>
  <line x1="80.4693" y1="100.4957" x2="111.8481" y2="61.5680"/>
  <line x1="69.6259" y1="118.7281" x2="115.4389" y2="61.8936"/>
  <line x1="66.9410" y1="126.8393" x2="119.0298" y2="62.2192"/>
  <line x1="69.9042" y1="127.9435" x2="122.6206" y2="62.5448"/>
  <line x1="72.2399" y1="129.8262" x2="126.2114" y2="62.8704"/>
  <line x1="75.2031" y1="130.9304" x2="129.8022" y2="63.1960"/>
  <line x1="78.1664" y1="132.0346" x2="133.3930" y2="63.5217"/>
  <line x1="81.1296" y1="133.1387" x2="136.9839" y2="63.8473"/>
  <line x1="83.4653" y1="135.0215" x2="140.5747" y2="64.1729"/>
  <line x1="86.4285" y1="136.1256" x2="143.5379" y2="65.2771"/>
  <line x1="89.3918" y1="137.2298" x2="147.1287" y2="65.6027"/>
  <line x1="92.3550" y1="138.3340" x2="150.7195" y2="65.9283"/>
  <line x1="95.3183" y1="139.4381" x2="154.3104" y2="66.2539"/>
  <line x1="97.6539" y1="141.3209" x2="157.9012" y2="66.5795"/>
  <line x1="100.6172" y1="142.4250" x2="161.4920" y2="66.9051"/>
  <line x1="103.5804" y1="143.5292" x2="165.0828" y2="67.2307"/>
  <line x1="106.5437" y1="144.6334" x2="168.6736" y2="67.5564"/>
  <line x1="109.5069" y1="145.7375" x2="171.6369" y2="68.6605"/>
  <line x1="111.8426" y1="147.6203" x2="175.2277" y2="68.9861"/>
  <line x1="114.8058" y1="148.7244" x2="178.8185" y2="69.3118"/>
  <line x1="117.7691" y1="149.8286" x2="182.4093" y2="69.6374"/>
  <line x1="120.7323" y1="150.9328" x2="186.0002" y2="69.9630"/>
  <line x1="123.0680" y1="152.8155" x2="189.5910" y2="70.2886"/>
  <line x1="126.0312" y1="153.9197" x2="193.1818" y2="70.6142"/>
  <line x1="128.9945" y1="155.0239" x2="196.7726" y2="70.9398"/>
  <line x1="131.9577" y1="156.1280" x2="200.3634" y2="71.2655"/>
  <line x1="134.9209" y1="157.2322" x2="203.3267" y2="72.3696"/>
  <line x1="137.2566" y1="159.1149" x2="206.9175" y2="72.6952"/>
  <line x1="140.2198" y1="160.2191" x2="209.8807" y2="73.7994"/>
  <line x1="143.1831" y1="161.3233" x2="213.4715" y2="74.1250"/>
  <line x1="146.1463" y1="162.4274" x2="216.4348" y2="75.2292"/>
  <line x1="149.7371" y1="162.7530" x2="220.0256" y2="75.5548"/>
  <line x1="152.7004" y1="163.8572" x2="222.9889" y2="76.6590"/>
  <line x1="155.6636" y1="164.9614" x2="226.5797" y2="76.9846"/>
  <line x1="159.2545" y1="165.2870" x2="229.5429" y2="78.0888"/>
  <line x1="162.2177" y1="166.3912" x2="233.1337" y2="78.4144"/>
  <line x1="165.1809" y1="167.4953" x2="236.0970" y2="79.5186"/>
  <line x1="168.1442" y1="168.5995" x2="239.6878" y2="79.8442"/>
  <line x1="171.7350" y1="168.9251" x2="242.6510" y2="80.9483"/>
  <line x1="174.6982" y1="170.0293" x2="245.6143" y2="82.0525"/>
  <line x1="177.6615" y1="171.1335" x2="249.2051" y2="82.3781"/>
  <line x1="181.2523" y1="171.4591" x2="252.1683" y2="83.4823"/>
  <line x1="184.2155" y1="172.5633" x2="255.7592" y2="83.8079"/>
  <line x1="187.1788" y1="173.6674" x2="258.7224" y2="84.9121"/>
  <line x1="190.1420" y1="174.7716" x2="262.3132" y2="85.2377"/>
  <line x1="193.7328" y1="175.0972" x2="265.2765" y2="86.3419"/>
  <line x1="196.6961" y1="176.2014" x2="268.8673" y2="86.6675"/>
  <line x1="199.6593" y1="177.3056" x2="271.8305" y2="87.7717"/>
  <line x1="203.2502" y1="177.6312" x2="275.4213" y2="88.0973"/>
  <line x1="207.4685" y1="177.1782" x2="278.3846" y2="89.2014"/>
  <line x1="211.6869" y1="176.7253" x2="281.9754" y2="89.5271"/>
  <line x1="215.9053" y1="176.2724" x2="284.9386" y2="90.6312"/>
  <line x1="220.7513" y1="175.0409" x2="288.5295" y2="90.9568"/>
  <line x1="224.9697" y1="174.5879" x2="291.4927" y2="92.0610"/>
  <line x1="229.1881" y1="174.1350" x2="295.0835" y2="92.3866"/>
  <line x1="233.4065" y1="173.6820" x2="298.0468" y2="93.4908"/>
  <line x1="237.6249" y1="173.2291" x2="299.7549" y2="96.1521"/>
  <line x1="242.4708" y1="171.9976" x2="302.0905" y2="98.0348"/>
  <line x1="246.6892" y1="171.5447" x2="303.7986" y2="100.6961"/>
  <line x1="251.5352" y1="170.3132" x2="305.5067" y2="103.3574"/>
  <line x1="258.8915" y1="165.9674" x2="307.8424" y2="105.2401"/>
  <line x1="266.2478" y1="161.6217" x2="309.5505" y2="107.9014"/>
  <line x1="273.6040" y1="157.2760" x2="311.2586" y2="110.5627"/>
  <line x1="280.9603" y1="152.9303" x2="312.9666" y2="113.2239"/>
  <line x1="288.3166" y1="148.5846" x2="315.3023" y2="115.1067"/>
  <line x1="295.6728" y1="144.2388" x2="317.0104" y2="117.7680"/>
  <line x1="303.0291" y1="139.8931" x2="318.7185" y2="120.4292"/>
  <line x1="310.3854" y1="135.5474" x2="321.0542" y2="122.3120"/>
  <line x1="317.7416" y1="131.2017" x2="322.7623" y2="124.9732"/>
  <line x1="325.0979" y1="126.8560" x2="324.4703" y2="127.6345"/>
  <line x1="211.3639" y1="218.3990" x2="210.2825" y2="215.6007"/>
  <line x1="215.2436" y1="220.1160" x2="211.6390" y2="210.7882"/>
  <line x1="219.1233" y1="221.8329" x2="212.9955" y2="205.9758"/>
  <line x1="223.0030" y1="223.5499" x2="213.9915" y2="200.2305"/>
  <line x1="226.8827" y1="225.2668" x2="215.3480" y2="195.4180"/>
  <line x1="230.7624" y1="226.9837" x2="216.7044" y2="190.6055"/>
  <line x1="234.6421" y1="228.7007" x2="217.7005" y2="184.8603"/>
  <line x1="238.8823" y1="231.3504" x2="219.0569" y2="180.0478"/>
  <line x1="242.7620" y1="233.0673" x2="220.4134" y2="175.2353"/>
  <line x1="246.6417" y1="234.7843" x2="221.4094" y2="169.4901"/>
  <line x1="250.5214" y1="236.5012" x2="222.7659" y2="164.6776"/>
  <line x1="254.4011" y1="238.2181" x2="224.1224" y2="159.8651"/>
  <line x1="258.2808" y1="239.9351" x2="225.4789" y2="155.0526"/>
  <line x1="262.1606" y1="241.6520" x2="227.9167" y2="153.0385"/>
  <line x1="266.0403" y1="243.3690" x2="231.0755" y2="152.8899"/>
  <line x1="269.9200" y1="245.0859" x2="233.8738" y2="151.8085"/>
  <line x1="273.7997" y1="246.8028" x2="237.0326" y2="151.6599"/>
  <line x1="278.0398" y1="249.4525" x2="240.1914" y2="151.5113"/>
  <line x1="281.9195" y1="251.1695" x2="242.9897" y2="150.4299"/>
  <line x1="285.7992" y1="252.8864" x2="246.1485" y2="150.2813"/>
  <line x1="289.6790" y1="254.6034" x2="249.3073" y2="150.1327"/>
  <line x1="293.5587" y1="256.3203" x2="252.1056" y2="149.0513"/>
  <line x1="297.4384" y1="258.0372" x2="255.2644" y2="148.9027"/>
  <line x1="301.3181" y1="259.7542" x2="258.4232" y2="148.7541"/>
  <line x1="305.1978" y1="261.4711" x2="261.2215" y2="147.6727"/>
  <line x1="309.0775" y1="263.1881" x2="264.3803" y2="147.5241"/>
  <line x1="312.5967" y1="263.9722" x2="267.5391" y2="147.3754"/>
  <line x1="314.6741" y1="261.0253" x2="270.3374" y2="146.2941"/>
  <line x1="317.1120" y1="259.0111" x2="273.4962" y2="146.1455"/>
  <line x1="319.1894" y1="256.0642" x2="276.6550" y2="145.9968"/>
  <line x1="321.2668" y1="253.1173" x2="279.4533" y2="144.9155"/>
  <line x1="323.7047" y1="251.1031" x2="282.6121" y2="144.7669"/>
  <line x1="325.7821" y1="248.1562" x2="285.7709" y2="144.6182"/>
  <line x1="327.8595" y1="245.2092" x2="288.9296" y2="144.4696"/>
  <line x1="330.2973" y1="243.1951" x2="291.7280" y2="143.3882"/>
  <line x1="332.3747" y1="240.2482" x2="294.8867" y2="143.2396"/>
  <line x1="334.8126" y1="238.2340" x2="298.0455" y2="143.0910"/>
  <line x1="336.8900" y1="235.2871" x2="300.8439" y2="142.0096"/>
  <line x1="338.9674" y1="232.3401" x2="304.0026" y2="141.8610"/>
  <line x1="341.4052" y1="230.3260" x2="307.8823" y2="143.5780"/>
  <line x1="343.4826" y1="227.3790" x2="312.4830" y2="147.1605"/>
  <line x1="345.5600" y1="224.4321" x2="316.7231" y2="149.8102"/>
  <line x1="347.9979" y1="222.4180" x2="321.3238" y2="153.3927"/>
  <line x1="350.0753" y1="219.4710" x2="325.5639" y2="156.0424"/>
  <line x1="352.1527" y1="216.5241" x2="330.1646" y2="159.6249"/>
  <line x1="354.5906" y1="214.5099" x2="334.7652" y2="163.2074"/>
  <line x1="356.6680" y1="211.5630" x2="339.0054" y2="165.8571"/>
  <line x1="359.1058" y1="209.5488" x2="343.6060" y2="169.4396"/>
  <line x1="361.1832" y1="206.6019" x2="347.8462" y2="172.0893"/>
  <line x1="363.2606" y1="203.6550" x2="352.4468" y2="175.6718"/>
  <line x1="365.6985" y1="201.6408" x2="357.0474" y2="179.2542"/>
  <line x1="367.7759" y1="198.6939" x2="361.2876" y2="181.9040"/>
  <line x1="369.8533" y1="195.7470" x2="365.8882" y2="185.4864"/>
  <line x1="372.2911" y1="193.7328" x2="370.1284" y2="188.1362"/>
  <line x1="374.3685" y1="190.7859" x2="374.7290" y2="191.7186"/>
  <line x1="306.0903" y1="367.8941" x2="307.0783" y2="368.0483"/>
  <line x1="312.4812" y1="365.8553" x2="301.6128" y2="364.1589"/>
  <line x1="317.8840" y1="363.6623" x2="295.1592" y2="360.1153"/>
  <line x1="324.2749" y1="361.6235" x2="289.6936" y2="356.2259"/>
  <line x1="330.6658" y1="359.5847" x2="284.2280" y2="352.3364"/>
  <line x1="336.0686" y1="357.3917" x2="277.7744" y2="348.2928"/>
  <line x1="342.4595" y1="355.3529" x2="272.3089" y2="344.4034"/>
  <line x1="348.8504" y1="353.3141" x2="266.8433" y2="340.5140"/>
  <line x1="354.2532" y1="351.1211" x2="260.3897" y2="336.4703"/>
  <line x1="360.6441" y1="349.0823" x2="254.9241" y2="332.5809"/>
  <line x1="367.0349" y1="347.0435" x2="249.4586" y2="328.6915"/>
  <line x1="368.4856" y1="344.2336" x2="243.9930" y2="324.8020"/>
  <line x1="370.9244" y1="341.5779" x2="237.5394" y2="320.7584"/>
  <line x1="373.3631" y1="338.9222" x2="232.0738" y2="316.8690"/>
  <line x1="375.8018" y1="336.2666" x2="226.6083" y2="312.9796"/>
  <line x1="377.2525" y1="333.4567" x2="222.1307" y2="309.2444"/>
  <line x1="379.6912" y1="330.8010" x2="224.5695" y2="306.5887"/>
  <line x1="382.1300" y1="328.1453" x2="227.0082" y2="303.9330"/>
  <line x1="384.5687" y1="325.4896" x2="228.4589" y2="301.1231"/>
  <line x1="386.0194" y1="322.6798" x2="230.8976" y2="298.4675"/>
  <line x1="388.4581" y1="320.0241" x2="232.3483" y2="295.6576"/>
  <line x1="390.8969" y1="317.3684" x2="234.7870" y2="293.0019"/>
  <line x1="393.3356" y1="314.7127" x2="237.2258" y2="290.3462"/>
  <line x1="394.7863" y1="311.9028" x2="238.6765" y2="287.5363"/>
  <line x1="397.2250" y1="309.2472" x2="241.1152" y2="284.8806"/>
  <line x1="399.6637" y1="306.5915" x2="243.5539" y2="282.2250"/>
  <line x1="402.1025" y1="303.9358" x2="245.0046" y2="279.4151"/>
  <line x1="403.5532" y1="301.1259" x2="247.4433" y2="276.7594"/>
  <line x1="405.9919" y1="298.4703" x2="248.8940" y2="273.9495"/>
  <line x1="408.4306" y1="295.8146" x2="251.3328" y2="271.2938"/>
  <line x1="409.8813" y1="293.0047" x2="253.7715" y2="268.6382"/>
  <line x1="412.3200" y1="290.3490" x2="255.2222" y2="265.8283"/>
  <line x1="414.7588" y1="287.6933" x2="257.6609" y2="263.1726"/>
  <line x1="417.1975" y1="285.0377" x2="259.1116" y2="260.3627"/>
  <line x1="418.6482" y1="282.2278" x2="261.5503" y2="257.7070"/>
  <line x1="421.0869" y1="279.5721" x2="263.9891" y2="255.0514"/>
  <line x1="422.5376" y1="276.7622" x2="265.4398" y2="252.2415"/>
  <line x1="421.0242" y1="273.4897" x2="267.8785" y2="249.5858"/>
  <line x1="419.5108" y1="270.2171" x2="270.3172" y2="246.9301"/>
  <line x1="417.0093" y1="266.7904" x2="271.7679" y2="244.1202"/>
  <line x1="415.4959" y1="263.5178" x2="274.2066" y2="241.4646"/>
  <line x1="413.9825" y1="260.2453" x2="275.6573" y2="238.6547"/>
  <line x1="412.4691" y1="256.9727" x2="278.0961" y2="235.9990"/>
  <line x1="409.9676" y1="253.5459" x2="279.5467" y2="233.1891"/>
  <line x1="408.4542" y1="250.2734" x2="280.0094" y2="230.2250"/>
  <line x1="406.9408" y1="247.0009" x2="281.4601" y2="227.4151"/>
  <line x1="405.4273" y1="243.7283" x2="282.9108" y2="224.6052"/>
  <line x1="402.9259" y1="240.3015" x2="284.3615" y2="221.7953"/>
  <line x1="401.4125" y1="237.0290" x2="284.8241" y2="218.8312"/>
  <line x1="399.8991" y1="233.7564" x2="286.2748" y2="216.0213"/>
  <line x1="398.3856" y1="230.4839" x2="287.7255" y2="213.2114"/>
  <line x1="395.8842" y1="227.0571" x2="289.1762" y2="210.4015"/>
  <line x1="394.3708" y1="223.7846" x2="290.6269" y2="207.5916"/>
  <line x1="392.8573" y1="220.5120" x2="291.0896" y2="204.6275"/>
  <line x1="388.3798" y1="216.7768" x2="292.5403" y2="201.8176"/>
  <line x1="372.0459" y1="211.1910" x2="293.9909" y2="199.0078"/>
  <line x1="355.7119" y1="205.6052" x2="295.4416" y2="196.1979"/>
  <line x1="338.3899" y1="199.8651" x2="296.8923" y2="193.3880"/>
  <line x1="322.0559" y1="194.2793" x2="297.3550" y2="190.4239"/>
  <line x1="305.7219" y1="188.6935" x2="298.8057" y2="187.6140"/>
</g>
</svg>