<?xml version="1.0" encoding="UTF-8" standalone="no"?>
<!-- Created with Inkscape (http://www.inkscape.org/) -->

<svg
   width="210mm"
   height="297mm"
   viewBox="0 0 210 297"
   version="1.1"
   id="svg1336"
   inkscape:version="1.4 (e7c3feb1, 2024-10-09)"
   sodipodi:docname="powerstroke_drawing.svg"
   xmlns:inkscape="http://www.inkscape.org/namespaces/inkscape"
   xmlns:sodipodi="http://sodipodi.sourceforge.net/DTD/sodipodi-0.dtd"
   xmlns="http://www.w3.org/2000/svg"
   xmlns:svg="http://www.w3.org/2000/svg">
  <sodipodi:namedview
     id="namedview1338"
     pagecolor="#ffffff"
     bordercolor="#000000"
     borderopacity="0.25"
     inkscape:showpageshadow="2"
     inkscape:pageopacity="0.0"
     inkscape:pagecheckerboard="0"
     inkscape:deskcolor="#d1d1d1"
     inkscape:document-units="mm"
     showgrid="false"
     inkscape:zoom="1.1893044"
     inkscape:cx="393.08692"
     inkscape:cy="612.96334"
     inkscape:window-width="1688"
     inkscape:window-height="1031"
     inkscape:window-x="0"
     inkscape:window-y="44"
     inkscape:window-maximized="0"
     inkscape:current-layer="layer1" />
  <defs
     id="defs1333">
    <inkscape:path-effect
       effect="powerstroke"
       message=""
       id="path-effect1"
       is_visible="true"
       lpeversion="1.3"
       scale_width="5"
       interpolator_type="Linear"
       interpolator_beta="0.16911765"
       start_linecap_type="zerowidth"
       end_linecap_type="zerowidth"
       offset_points="0.00,2.50 | 0.50,1.50 | 0.625,1.25 | 0.75,1.00 | 0.375,1.75 | 0.25,2.00 | 1.00,0.25"
       linejoin_type="round"
       miter_limit="4"
       not_jump="false"
       sort_points="true" />
  </defs>
  <g
     inkscape:label="Layer 1"
     inkscape:groupmode="layer"
     id="layer1">
    <path
       style="fill:#000000;fill-rule:nonzero;stroke:none;stroke-width:1;stroke-linejoin:bevel"
       d="m 82.627143,206.90587 12.456117,-3.47753 c -2.906816,-6.98603 -4.573227,-14.65522 -4.758466,-22.45574 -0.01473,-0.7437 -0.01598,-1.48826 -0.0036,-2.23318 0.055,-3.30135 0.378371,-6.61086 0.986873,-9.88415 1.109436,-5.05407 2.901902,-9.99197 5.433868,-14.6447 0.04593,-0.0847 0.09212,-0.16933 0.138546,-0.25386 2.18301,-3.97425 4.92073,-7.76089 8.26254,-11.24014 3.12793,-3.28655 6.80792,-6.31953 11.08684,-8.98103 1.31558,-0.8183 2.68823,-1.60175 4.11918,-2.34667 7.89749,-4.85324 17.90448,-8.53671 30.20221,-10.25262 0.0389,-0.3702 0.0783,-0.74039 0.11829,-1.11056 -0.064,-0.36679 -0.12839,-0.73352 -0.19331,-1.1002 -12.57208,-0.86594 -23.94423,0.29726 -34.1109,3.31334 -1.74236,0.63666 -3.44028,1.32751 -5.09349,2.07079 -5.38131,2.41942 -10.28102,5.39087 -14.685752,8.84377 -4.671751,3.69033 -8.757976,7.90561 -12.247636,12.53676 -0.07409,0.0983 -0.147906,0.19683 -0.221449,0.29551 -4.042893,5.43827 -7.248867,11.41261 -9.618812,17.72453 -1.621747,4.013 -2.903851,8.17763 -3.844357,12.44131 -0.212181,0.96189 -0.406971,1.92881 -0.584348,2.90014 -1.886346,10.15845 -1.873127,20.84223 0.10151,31.33176 z"
       id="path2"
       sodipodi:nodetypes="cc"
       inkscape:path-effect="#path-effect1"
       inkscape:original-d="M 82.627143,206.90587 C 71.936811,168.6143 91.922941,121.93766 150.66957,120.02569" />
  </g>
</svg>
